<?xml version="1.0" encoding="UTF-8" standalone="no"?>
<!-- Created with Inkscape (http://www.inkscape.org/) -->

<svg
   xmlns:dc="http://purl.org/dc/elements/1.1/"
   xmlns:cc="http://creativecommons.org/ns#"
   xmlns:rdf="http://www.w3.org/1999/02/22-rdf-syntax-ns#"
   xmlns:svg="http://www.w3.org/2000/svg"
   xmlns="http://www.w3.org/2000/svg"
   xmlns:sodipodi="http://sodipodi.sourceforge.net/DTD/sodipodi-0.dtd"
   xmlns:inkscape="http://www.inkscape.org/namespaces/inkscape"
   width="210mm"
   height="297mm"
   viewBox="0 0 210 297"
   version="1.1"
   id="svg8"
   inkscape:version="0.92.3 (3ce5693, 2018-03-11)"
   sodipodi:docname="jackalope.svg">
  <defs
     id="defs2" />
  <sodipodi:namedview
     id="base"
     pagecolor="#ffffff"
     bordercolor="#666666"
     borderopacity="1.0"
     inkscape:pageopacity="0.0"
     inkscape:pageshadow="2"
     inkscape:zoom="0.50383782"
     inkscape:cx="193.41728"
     inkscape:cy="514.99905"
     inkscape:document-units="mm"
     inkscape:current-layer="layer1"
     showgrid="false"
     inkscape:pagecheckerboard="true"
     inkscape:window-width="1551"
     inkscape:window-height="876"
     inkscape:window-x="49"
     inkscape:window-y="24"
     inkscape:window-maximized="1" />
  <metadata
     id="metadata5">
    <rdf:RDF>
      <cc:Work
         rdf:about="">
        <dc:format>image/svg+xml</dc:format>
        <dc:type
           rdf:resource="http://purl.org/dc/dcmitype/StillImage" />
        <dc:title></dc:title>
      </cc:Work>
    </rdf:RDF>
  </metadata>
  <g
     inkscape:label="Layer 1"
     inkscape:groupmode="layer"
     id="layer1">
    <path
       style="fill:#fcfcfc;stroke-width:0.26458332"
       d="m 62.574009,264.90976 c -0.25142,-0.4068 4.43402,-5.0003 7.36818,-7.22359 4.22709,-3.20298 11.29118,-6.71262 16.67926,-8.28674 1.33289,-0.38941 2.56828,-0.81606 2.74532,-0.94813 0.24338,-0.18155 0.13787,-0.60505 -0.4326,-1.73641 -2.72939,-5.41286 -6.42053,-16.90471 -6.7392,-20.98161 -0.0528,-0.67599 -0.17107,-1.35041 -0.26272,-1.49871 -0.0917,-0.14831 -0.16101,-0.66679 -0.15412,-1.15218 0.007,-0.4854 -0.0221,-3.06681 -0.0645,-5.73648 -0.0424,-2.66966 0.007,-4.90589 0.10983,-4.96941 0.10278,-0.0635 0.1226,-0.28298 0.044,-0.48772 -0.3102,-0.80836 1.08899,-6.03074 2.42534,-9.05247 1.14016,-2.57811 3.4181,-5.68772 5.9871,-8.173 2.73434,-2.64522 5.27224,-4.29614 8.20868,-5.3398 1.742521,-0.61931 2.312101,-0.68715 5.769841,-0.68719 3.48236,-4e-5 4.01538,0.0645 5.77502,0.6993 2.29102,0.82648 3.40264,1.46446 5.24632,3.01095 1.90157,1.59504 1.59374,0.58192 -0.50481,-1.66144 -1.80028,-1.9245 -3.80725,-3.03538 -6.68008,-3.69751 -1.01864,-0.23477 -2.21772,-0.53408 -2.66461,-0.66513 -1.0497,-0.30781 -2.37877,-0.30315 -3.40202,0.0119 -0.44689,0.13761 -1.64597,0.38264 -2.664621,0.54451 -4.66343,0.74104 -9.54784,3.35154 -13.36467,7.1428 -2.1694,2.15486 -2.70664,2.87222 -3.76489,5.02708 -1.34777,2.74439 -2.59687,6.68227 -3.10527,9.78958 -0.17857,1.09141 -0.38896,2.16297 -0.46754,2.38125 -0.22258,0.61825 -0.30268,2.21253 -0.30575,6.08542 -0.003,3.94755 0.23465,7.26063 0.58865,8.20208 0.0821,0.21828 0.34525,1.39346 0.58483,2.61151 0.83552,4.24792 3.03527,10.38283 5.4324,15.15048 0.57243,1.13851 1.04079,2.13219 1.04079,2.20818 0,1.5498 -10.97096,-8.36398 -16.66681,-15.06076 -4.38286,-5.15307 -9.24376,-12.05462 -11.89019,-16.8818 -0.61829,-1.12779 -1.214888,-2.05052 -1.325778,-2.05052 -0.34131,0 -0.57831,4.90318 -0.27551,5.69962 0.15167,0.39893 0.27226,1.39307 0.26797,2.2092 -0.004,0.81614 0.0604,2.13873 0.14377,2.93909 0.16521,1.58628 0.37318,3.83405 0.489578,5.29167 0.0407,0.50932 0.16406,1.13467 0.2742,1.38966 0.11014,0.25498 0.12744,0.7537 0.0385,1.10826 -0.089,0.35456 -0.0392,0.72044 0.11071,0.81307 0.14987,0.0926 0.27286,0.54641 0.27331,1.0084 0.001,1.06036 0.14506,2.30971 0.32562,2.82436 0.0766,0.21828 0.33983,1.70656 0.58498,3.30729 0.24516,1.60073 1.04747,5.82745 1.78293,9.39271 0.73546,3.56526 1.39299,6.80971 1.46118,7.2099 0.20116,1.18058 -0.47795,0.87849 -1.78666,-0.79476 -15.178188,-19.40603 -26.588096,-42.91242 -32.010126,-65.94639 -1.0376,-4.40796 -2.16796,-10.61274 -2.0089,-11.02726 0.0703,-0.18308 0.0108,-0.40518 -0.13223,-0.49355 -0.14299,-0.0884 -0.26089,-0.53867 -0.26201,-1.00066 -10e-4,-0.46199 -0.0695,-1.37577 -0.15202,-2.03061 -0.2376,-1.88598 -0.39155,-3.7187 -0.44451,-5.29167 -0.0269,-0.80037 -0.13073,-1.58043 -0.23063,-1.73347 -0.33448,-0.51245 -0.3,-16.47487 0.0377,-17.44882 0.0505,-0.14552 0.12113,-0.91943 0.15705,-1.71979 0.0359,-0.80037 0.12984,-1.99099 0.20871,-2.64584 0.17767,-1.47523 0.33154,-2.84101 0.55147,-4.89479 0.22925,-2.14079 1.55522,-8.62296 2.53873,-12.41085 1.74697,-6.72829 4.84139,-15.20808 7.94928,-21.7838 l 1.53056,-3.2384 0.0667,-2.890004 0.0667,-2.89 -1.9647,-1.57923 c -3.21916,-2.58755 -6.53328,-6.28938 -10.9013,-12.17658 -3.10072,-4.17914 -5.04609,-7.75213 -6.36509,-11.69051 -0.84742,-2.53029 -1.74136,-6.48223 -1.76557,-7.80521 -0.0579,-3.16686 -0.001,-9.86716 0.094,-11.12738 0.0667,-0.88132 0.43155,-2.90538 0.81084,-4.49792 2.77621,-11.65669 8.70496,-21.05285 17.33764,-27.4775 2.50462,-1.86401 8.005818,-4.91907 8.857678,-4.91907 0.76815,0 0.43048,0.52646 -0.83864,1.30751 -6.686328,4.11498 -11.638768,9.50147 -15.186558,16.51759 -1.42788,2.82379 -2.87125,6.5072 -2.87125,7.32729 0,0.4151 0.30783,0.26053 1.65364,-0.83036 2.77908,-2.25264 8.22933,-4.51325 9.88154,-4.09857 0.33177,0.0833 0.67708,0.0319 0.76734,-0.11416 0.18939,-0.30644 1.47597,-0.33829 3.810148,-0.0943 1.30767,0.13668 1.62149,0.2568 1.55534,0.59532 -0.0627,0.32112 -0.43499,0.43394 -1.53326,0.46469 -4.323008,0.12104 -9.674758,2.76023 -12.960348,6.39134 -1.89789,2.09747 -4.03627,6.24482 -4.45959,8.6493 -0.44377,2.52065 -0.55581,4.60583 -0.2574,4.79026 0.1488,0.092 0.21941,0.51553 0.15692,0.94126 -0.0625,0.42574 -0.0144,0.83539 0.10686,0.91033 0.12126,0.0749 0.21964,0.39712 0.21862,0.71595 -0.004,1.26018 1.46694,6.29127 2.64905,9.06042 1.30491,3.05686 3.51203,6.90312 5.38181,9.37865 1.68394,2.22951 6.2827,6.87917 6.80385,6.87917 0.33201,0 0.42449,-0.14895 0.32609,-0.52521 -0.0755,-0.28887 -0.0523,-0.73535 0.0517,-0.99219 0.10397,-0.25684 0.23258,-0.97029 0.2858,-1.58545 0.0532,-0.61516 0.40493,-2.63922 0.78158,-4.49791 2.634368,-13.00013 7.382088,-24.38578 13.600578,-32.6159 3.809752,-5.04219 9.702242,-10.32301 14.599752,-13.08422 2.84676,-1.60499 7.40782,-3.55967 8.3611,-3.58321 0.40628,-0.01 1.21493,-0.0304 1.79701,-0.0452 2.6367,-0.0672 4.35513,0.58987 5.88593,2.2506 1.07599,1.16731 1.91928,3.19826 1.91928,4.62232 0,0.82265 -1.06665,3.79091 -2.09268,5.82345 -1.22402,2.42477 -4.35882,6.98132 -7.3744,10.71899 -9.95546,12.3393 -18.7754,27.20617 -21.496352,36.2342 -0.44818,1.48703 -0.92756,3.06934 -1.0653,3.51624 -0.37609,1.22022 -0.30592,1.83336 0.2694,2.35402 0.76874,0.69569 3.310602,1.29623 5.565582,1.31491 1.09141,0.009 2.12246,0.10613 2.29123,0.21574 0.16877,0.10962 0.48287,0.13175 0.69801,0.0492 0.53979,-0.20714 4.72075,0.81531 5.99758,1.4667 0.57545,0.29357 1.10854,0.53376 1.18464,0.53376 0.0761,0 0.45385,-0.62507 0.83943,-1.38906 1.76947,-3.50599 5.88388,-9.66964 8.78668,-13.16302 1.91684,-2.30682 7.13657,-7.56616 9.3066,-9.37723 2.48248,-2.07183 6.39656,-4.75744 9.0083,-6.18095 4.266977,-2.3257 12.045917,-4.9043 15.636787,-5.18337 0.67621,-0.0525 1.36758,-0.18091 1.53639,-0.28524 0.16882,-0.10433 0.59053,-0.11851 0.93714,-0.0315 0.34661,0.087 0.70897,0.0307 0.80524,-0.12505 0.0963,-0.15577 0.60959,-0.2455 1.1407,-0.19941 0.96483,0.0837 0.96563,0.0829 0.9322,-0.94533 -0.0212,-0.6517 -0.50226,-1.96169 -1.31172,-3.57187 -1.77438,-3.52963 -4.72447,-6.49267 -8.26034,-8.2966 -1.35398,-0.69076 -2.94176,-1.33269 -3.5284,-1.4265 -0.94502,-0.15111 -1.57717,-0.68633 -1.22574,-1.03777 0.25405,-0.25405 3.97211,0.43164 5.79618,1.06893 3.21866,1.12454 5.19468,2.40207 7.86591,5.08547 1.36259,1.3688 2.5248,2.44136 2.58269,2.38346 0.1507,-0.15069 0.14369,-2.00884 -0.0117,-3.09785 -0.21487,-1.50597 -1.36529,-6.08397 -1.99463,-7.9375 -1.89634,-5.58505 -5.59216,-11.54908 -9.55644,-15.42144 -1.43135,-1.39816 -1.95114,-2.30564 -1.32062,-2.30564 0.43213,0 5.13815,4.0975 6.87403,5.98518 6.20741,6.75022 10.4948,16.48225 11.29227,25.63252 0.0507,0.58209 0.18671,1.53459 0.30218,2.11667 0.20729,1.04503 0.22819,1.06094 1.66152,1.26576 0.79837,0.11408 2.0469,0.24692 2.7745,0.2952 2.92482,0.19407 4.33598,0.42425 6.54027,1.0668 5.6932,1.65959 9.48539,4.52136 9.59862,7.24357 0.0424,1.01882 -0.54021,3.02613 -1.3268,4.57153 -0.81581,1.6028 -3.24925,3.69103 -5.54389,4.75743 -1.9615,0.91158 -5.90466,2.06973 -7.15153,2.10048 -0.29104,0.007 -1.06495,0.077 -1.71979,0.15525 -1.91294,0.22847 -4.21934,0.39466 -6.34882,0.45748 l -1.98319,0.0585 -0.6183,1.31712 c -2.82409,6.01598 -7.82179,11.48632 -16.34657,17.89254 -3.54991,2.667684 -5.27659,3.773134 -7.704067,4.932264 -1.69519,0.80946 -2.38163,0.99096 -3.90843,1.03342 -3.20901,0.0892 -9.39271,1.6608 -9.39271,2.38711 0,0.19254 0.54949,1.44419 1.2211,2.78144 2.52157,5.02075 5.02588,12.56248 5.25059,15.81214 0.049,0.70872 0.13846,1.38609 0.19879,1.50527 0.10444,0.20631 0.0538,7.62503 -0.052,7.62503 -0.0279,0 -0.0957,0.53578 -0.15074,1.19063 -0.12941,1.53949 -1.22716,4.51575 -2.25817,6.12244 -2.54689,3.96898 -7.91788,6.95959 -13.07312,7.27921 -0.87312,0.0541 -2.2069,0.16764 -2.96394,0.25224 -0.76077,0.085 -1.77823,0.0212 -2.27472,-0.14265 -2.08616,-0.6885 -2.39334,0.51444 -0.92073,3.60565 1.01683,2.13447 1.09835,2.15055 4.47897,0.88348 7.27148,-2.72536 17.88257,-5.20392 23.24396,-5.42937 0.65485,-0.0275 1.25016,-0.0839 1.32292,-0.12515 0.25191,-0.14299 11.510507,-0.17824 11.773967,-0.0369 0.14552,0.0781 0.91943,0.16784 1.71979,0.19947 3.06409,0.12107 9.03863,1.92164 12.74772,3.84182 2.07933,1.07648 4.1897,2.72141 6.30228,4.91235 0.65485,0.67913 2.12399,2.13326 3.26477,3.23139 4.1364,3.98179 9.20255,10.28855 11.77242,14.6553 0.69849,1.18689 1.99474,3.64626 2.88055,5.46527 0.88581,1.81901 2.06446,3.83254 2.61924,4.47451 1.27647,1.47711 3.65024,3.02027 5.30455,3.44844 0.70305,0.18196 1.45686,0.39356 1.67514,0.47022 0.79676,0.27981 3.87719,0.10307 5.42396,-0.31119 3.87748,-1.03849 6.10261,-2.71644 7.12279,-5.37122 0.72867,-1.89621 1.90071,-3.27497 3.21088,-3.77721 1.81129,-0.69434 4.49256,0.45694 6.88681,2.95707 2.42703,2.53434 4.02418,5.46254 4.22223,7.74099 0.0518,0.59621 0.1141,1.08401 0.1384,1.08401 0.12323,0 0.13979,6.38761 0.0171,6.61104 -0.0788,0.14357 -0.17229,0.73888 -0.20772,1.32292 -0.0354,0.58403 -0.37105,1.99706 -0.74581,3.14006 -2.69589,8.22223 -8.2346,13.21169 -14.69159,13.23468 -2.72472,0.01 -4.03469,-0.20276 -6.35,-1.02993 -3.47006,-1.2397 -7.15478,-3.55124 -11.02087,-6.91373 -0.8955,-0.77884 -1.68565,-1.41608 -1.75591,-1.41608 -0.18772,0 -0.46879,1.58983 -0.45256,2.55978 0.008,0.46199 -0.10293,0.91229 -0.24591,1.00066 -0.14299,0.0884 -0.19815,0.3218 -0.12258,0.51874 0.0756,0.19694 -0.28496,2.23085 -0.80119,4.5198 -4.11475,18.24483 -13.95972,34.39313 -27.40515,44.95155 l -1.7198,1.35051 -2.51354,-0.0539 c -1.38245,-0.0297 -4.59713,-0.12338 -7.14375,-0.20825 -10.03284,-0.33439 -22.249897,-0.10866 -30.162507,0.55731 -0.94588,0.0796 -2.37463,0.19969 -3.175,0.26684 -2.99605,0.25138 -3.31662,0.28864 -3.70417,0.43059 -0.21828,0.0799 -1.46843,0.28911 -2.77812,0.4648 -2.14874,0.28826 -6.1951,1.03939 -7.88759,1.46417 -0.39634,0.0995 -0.73338,0.035 -0.85621,-0.1637 z M 93.493559,95.439216 c 2.89606,-1.10946 6.40892,-2.91145 8.806181,-4.51731 3.87931,-2.59864 8.29558,-6.66254 7.52086,-6.92078 -0.5646,-0.1882 -8.51923,3.94455 -12.157831,6.31648 -3.88796,2.53448 -8.22101,5.76197 -8.22101,6.12345 0,0.36728 1.34794,0.034 4.0518,-1.00184 z"
       id="path137"
       inkscape:connector-curvature="0" />
    <path
       style="fill:#000000;stroke-width:0.26458332"
       d=""
       id="path121"
       inkscape:connector-curvature="0" />
    <path
       style="fill:#000000;stroke-width:0.26458332"
       d=""
       id="path101"
       inkscape:connector-curvature="0" />
    <path
       style="fill:#000000;stroke-width:0.26458332"
       d=""
       id="path99"
       inkscape:connector-curvature="0" />
    <path
       style="fill:#000000;stroke-width:0.26458332"
       d=""
       id="path97"
       inkscape:connector-curvature="0" />
    <path
       style="fill:#000000;stroke-width:0.26458332"
       d=""
       id="path93"
       inkscape:connector-curvature="0" />
  </g>
</svg>
