<?xml version="1.0" encoding="UTF-8" standalone="no"?>
<!-- Created with Inkscape (http://www.inkscape.org/) -->

<svg
   xmlns:dc="http://purl.org/dc/elements/1.1/"
   xmlns:cc="http://creativecommons.org/ns#"
   xmlns:rdf="http://www.w3.org/1999/02/22-rdf-syntax-ns#"
   xmlns:svg="http://www.w3.org/2000/svg"
   xmlns="http://www.w3.org/2000/svg"
   xmlns:sodipodi="http://sodipodi.sourceforge.net/DTD/sodipodi-0.dtd"
   xmlns:inkscape="http://www.inkscape.org/namespaces/inkscape"
   version="1.1"
   id="svg3962"
   width="282"
   height="410"
   viewBox="0 0 282 410"
   sodipodi:docname="leftAnt.svg"
   inkscape:version="0.92.3 (3ce5693, 2018-03-11)">
  <metadata
     id="metadata3968">
    <rdf:RDF>
      <cc:Work
         rdf:about="">
        <dc:format>image/svg+xml</dc:format>
        <dc:type
           rdf:resource="http://purl.org/dc/dcmitype/StillImage" />
        <dc:title></dc:title>
      </cc:Work>
    </rdf:RDF>
  </metadata>
  <defs
     id="defs3966" />
  <sodipodi:namedview
     pagecolor="#ffffff"
     bordercolor="#666666"
     borderopacity="1"
     objecttolerance="10"
     gridtolerance="10"
     guidetolerance="10"
     inkscape:pageopacity="0"
     inkscape:pageshadow="2"
     inkscape:window-width="1551"
     inkscape:window-height="876"
     id="namedview3964"
     showgrid="false"
     inkscape:zoom="1.4254587"
     inkscape:cx="28.053901"
     inkscape:cy="205"
     inkscape:window-x="49"
     inkscape:window-y="24"
     inkscape:window-maximized="1"
     inkscape:current-layer="svg3962" />
  <path
     style="fill:#142c3d;stroke-width:1.1238029;fill-opacity:1"
     d="m 224.83302,385.26335 c -4.78824,-2.09525 -6.60182,-5.10464 -8.76341,-14.54162 -4.27231,-18.6519 -18.05997,-29.57529 -50.43224,-39.95534 C 121.13992,316.49844 89.295377,300.45945 59.915433,277.51793 43.657028,264.82245 36.925539,255.54662 31.329191,238.12681 c -4.466206,-13.90202 -5.839504,-24.15627 -5.821344,-43.46725 0.02,-21.29262 2.03124,-37.95662 7.299999,-60.48451 C 37.396929,114.5532 46.118943,89.714043 53.844593,74.265082 65.635061,50.687698 86.551062,24.042365 93.268341,24.042365 c 1.868468,0 1.247578,1.730769 -4.535506,12.642782 -12.564847,23.708499 -21.678317,51.013985 -26.476082,79.326833 -2.354143,13.89232 -4.512766,45.64862 -3.255646,47.89496 0.825242,1.47463 2.237491,0.86848 8.879728,-3.81122 19.070368,-13.4358 40.396445,-21.98736 54.832545,-21.98736 10.77266,0 11.89677,1.45416 4.38146,5.66795 -29.030131,16.27702 -56.422792,42.01969 -64.321857,60.44745 -4.305143,10.04349 -3.150717,17.73364 4.382435,29.1934 6.007545,9.13894 15.379093,18.43211 25.317349,25.10562 7.077047,4.75221 64.618883,31.71572 84.847103,39.75847 6.82895,2.71519 13.90845,4.7621 16.80503,4.85889 4.7618,0.15912 5.13117,-0.0587 7.5986,-4.47973 7.06437,-12.65774 9.59034,-36.75356 6.62601,-63.20691 -3.19047,-28.47123 -2.30124,-35.22906 3.96026,-30.09679 8.28967,6.79468 10.76028,19.59945 11.52678,59.74137 0.79601,41.68844 2.68654,54.45703 9.37762,63.33626 1.56445,2.07609 7.05056,6.48809 12.19131,9.80444 5.14076,3.31634 9.8773,7.02088 10.52562,8.23229 3.45827,6.46183 -1.44063,19.75136 -11.4,30.92553 -8.4182,9.44501 -12.42995,11.04717 -19.69808,7.86675 z"
     id="path3972"
     inkscape:connector-curvature="0" />
</svg>
