<svg xmlns="http://www.w3.org/2000/svg" viewBox="0 0 582.68 779.34"><defs><style>.cls-1{fill:#231f20;}</style></defs><title>logo</title><g id="Layer_4" data-name="Layer 4"><path class="cls-1" d="M579.32,504c-8-25.67-41.33-42.67-45.33-16-2.66,17.75-49.33,41.33-72.67-.67S384,410.67,384,410.67c-72-35.33-176,24-176,24-10-5.33-10.67-19.33-10.67-19.33s62,3.33,66-48c2.75-35.33-18.5-71.62-32-90.8,8.31-4.11,21.39-9.76,32-10.7,17-1.5,55-45,55-45,11.09-12.12,19.26-27.12,24.3-43.5,1.34-.25,2.68-.47,4-.66,66-9.33,65.33-30,68-42.67,2.07-9.83-19.56-26.88-68-21.57C339.63,66.87,314.59,28.1,275.54,8a133.92,133.92,0,0,1,54.9,92.33,63,63,0,0,0-51.8-27.08q-3,0-5.84.27h0a63.12,63.12,0,0,1,53.76,42.16A280,280,0,0,0,298,123.34c-82.67,26.67-114.67,124-114.67,124-11.58-6-30.83-5.12-41.5-4q-5.38-.58-10.67-1.58c-9.91-16.67,26.09-98.29,52.17-137.41,28-42,27-59,27-59-5-29-35-17-35-17C96.69,67,81.61,161.05,80.55,221.3c-32.31-21-56-54.73-61.91-93.43A63.07,63.07,0,0,1,75.85,65.52h0Q73,65.26,70,65.26a63,63,0,0,0-51.8,27.08A133.92,133.92,0,0,1,73.1,0C29.88,22.25,3.82,67.35.32,119.24-2,154,8.5,189,30.32,212.84c0,0,32.89,37.65,51.16,44.1.82,11.53,1.84,18.4,1.84,18.4-100,265,131.47,483.53,131.47,483.53,25-31.33,69.2-48.2,69.2-48.2C243.82,653.34,244,604,253.32,570s55.2-63.56,91.33-50.33C368.32,528.34,374,558,374,558a56.5,56.5,0,0,0-2-7.08c-2.16-6.07-6.65-10.65-11.37-15-15.27-14.22-57.27-22.22-85.93,20.78-43.21,64.81,24,162,24,162C240,740,217.32,779.34,217.32,779.34c62-24,181.33-29.33,181.33-29.33,83.33-78,76.67-186,76.67-186C560,630,594.13,551.53,579.32,504Zm-270-315.34a144.2,144.2,0,0,1-72.83,56.05C252.37,228,278.82,203.53,309.31,188.67Z"/><path class="cls-1" d="M275.53,8h0Z"/><path class="cls-1" d="M73.12,0h0Z"/></g></svg>