<?xml version="1.0" encoding="UTF-8" standalone="no"?>
<!-- Created with Inkscape (http://www.inkscape.org/) -->

<svg
   xmlns:dc="http://purl.org/dc/elements/1.1/"
   xmlns:cc="http://creativecommons.org/ns#"
   xmlns:rdf="http://www.w3.org/1999/02/22-rdf-syntax-ns#"
   xmlns:svg="http://www.w3.org/2000/svg"
   xmlns="http://www.w3.org/2000/svg"
   xmlns:sodipodi="http://sodipodi.sourceforge.net/DTD/sodipodi-0.dtd"
   xmlns:inkscape="http://www.inkscape.org/namespaces/inkscape"
   version="1.1"
   id="svg3962"
   width="282"
   height="410"
   viewBox="0 0 282 410"
   sodipodi:docname="rightAnt.svg"
   inkscape:version="0.92.3 (3ce5693, 2018-03-11)">
  <metadata
     id="metadata3968">
    <rdf:RDF>
      <cc:Work
         rdf:about="">
        <dc:format>image/svg+xml</dc:format>
        <dc:type
           rdf:resource="http://purl.org/dc/dcmitype/StillImage" />
        <dc:title></dc:title>
      </cc:Work>
    </rdf:RDF>
  </metadata>
  <defs
     id="defs3966" />
  <sodipodi:namedview
     pagecolor="#ffffff"
     bordercolor="#666666"
     borderopacity="1"
     objecttolerance="10"
     gridtolerance="10"
     guidetolerance="10"
     inkscape:pageopacity="0"
     inkscape:pageshadow="2"
     inkscape:window-width="1551"
     inkscape:window-height="876"
     id="namedview3964"
     showgrid="false"
     inkscape:zoom="1.4254587"
     inkscape:cx="28.053901"
     inkscape:cy="205"
     inkscape:window-x="49"
     inkscape:window-y="24"
     inkscape:window-maximized="1"
     inkscape:current-layer="svg3962" />
  <path
     style="fill:#ffffff;fill-opacity:1;stroke-width:1.1238029"
     d="m 57.710196,385.26335 c 4.78824,-2.09525 6.60182,-5.10464 8.76341,-14.54162 4.27231,-18.6519 18.05997,-29.57529 50.432244,-39.95534 44.49745,-14.26795 76.34199,-30.30694 105.72193,-53.24846 16.25841,-12.69548 22.9899,-21.97131 28.58624,-39.39112 4.46621,-13.90202 5.83951,-24.15627 5.82135,-43.46725 -0.02,-21.29262 -2.03124,-37.95662 -7.3,-60.48451 -4.58908,-19.62185 -13.3111,-44.461007 -21.03675,-59.909968 -11.79047,-23.577384 -32.70647,-50.222717 -39.42375,-50.222717 -1.86846,0 -1.24757,1.730769 4.53551,12.642782 12.56485,23.708499 21.67832,51.013985 26.47608,79.326833 2.35415,13.89232 4.51277,45.64862 3.25565,47.89496 -0.82524,1.47463 -2.23749,0.86848 -8.87973,-3.81122 -19.07037,-13.4358 -40.39644,-21.98736 -54.83254,-21.98736 -10.77266,0 -11.89677,1.45416 -4.38146,5.66795 29.03013,16.27702 56.42279,42.01969 64.32185,60.44745 4.30515,10.04349 3.15072,17.73364 -4.38243,29.1934 -6.00755,9.13894 -15.3791,18.43211 -25.31735,25.10562 -7.07705,4.75221 -64.61888,31.71572 -84.8471,39.75847 -6.828954,2.71519 -13.908454,4.7621 -16.805034,4.85889 -4.7618,0.15912 -5.13117,-0.0587 -7.5986,-4.47973 -7.06437,-12.65774 -9.59034,-36.75356 -6.62601,-63.20691 3.19047,-28.47123 2.30124,-35.22906 -3.96026,-30.09679 -8.28967,6.79468 -10.76028,19.59945 -11.52678,59.74137 -0.79601,41.68844 -2.68654,54.45703 -9.37762,63.33626 -1.56445,2.07609 -7.05056,6.48809 -12.19131,9.80444 -5.14076,3.31634 -9.8773,7.02088 -10.52562,8.23229 -3.45827,6.46183 1.44063,19.75136 11.4,30.92553 8.4182,9.44501 12.42995,11.04717 19.69808,7.86675 z"
     id="path3972"
     inkscape:connector-curvature="0" />
</svg>
