<svg xmlns="http://www.w3.org/2000/svg" viewBox="0 0 544 782"><defs><style>.cls-1{fill:none;stroke:#d4fffd;stroke-miterlimit:10;opacity:0.7;}.cls-2{fill:#55ff9a;}</style></defs><title>bel</title><g id="Layer_2" data-name="Layer 2"><path class="cls-1" d="M274,142.43l-55-132,153,20-98,112-204-30-32,104,236-74,170-10,45,64-215-54-65,104-199,42,269,70-70-112,128,6,197,66-255,40,58-106-63-110,5,216,48,71-81,125s64,24,61,20-125-159-125-159l97-57-33,196"/><polyline class="cls-1" points="279 358.43 307 574.43 219 684.43 307 772.43 246 554.43"/></g><g id="Layer_1" data-name="Layer 1"><path class="cls-2" d="M372,40a10.62,10.62,0,0,0-10-10,10.62,10.62,0,0,0,10-10,10.62,10.62,0,0,0,10,10,10.62,10.62,0,0,0-10,10Z"/><path class="cls-2" d="M274,152a10.62,10.62,0,0,0-10-10,10.62,10.62,0,0,0,10-10,10.62,10.62,0,0,0,10,10,10.62,10.62,0,0,0-10,10Z"/><path class="cls-2" d="M444,142a10.62,10.62,0,0,0-10-10,10.62,10.62,0,0,0,10-10,10.62,10.62,0,0,0,10,10,10.62,10.62,0,0,0-10,10Z"/><path class="cls-2" d="M489,206a10.62,10.62,0,0,0-10-10,10.62,10.62,0,0,0,10-10,10.62,10.62,0,0,0,10,10,10.62,10.62,0,0,0-10,10Z"/><path class="cls-2" d="M70,122a10.62,10.62,0,0,0-10-10,10.62,10.62,0,0,0,10-10,10.62,10.62,0,0,0,10,10,10.62,10.62,0,0,0-10,10Z"/><path class="cls-2" d="M219,20a10.62,10.62,0,0,0-10-10,10.81,10.81,0,0,0,7-3.14A10.8,10.8,0,0,0,219,0a10.81,10.81,0,0,0,3.14,7A10.8,10.8,0,0,0,229,10a10.62,10.62,0,0,0-10,10Z"/><path class="cls-2" d="M38,226a10.62,10.62,0,0,0-10-10,10.62,10.62,0,0,0,10-10,10.62,10.62,0,0,0,10,10,10.62,10.62,0,0,0-10,10Z"/><path class="cls-2" d="M209,256a10.62,10.62,0,0,0-10-10,10.62,10.62,0,0,0,10-10,10.62,10.62,0,0,0,10,10,10.62,10.62,0,0,0-10,10Z"/><path class="cls-2" d="M10,298a10.8,10.8,0,0,0-3-6.86A10.81,10.81,0,0,0,0,288a10.81,10.81,0,0,0,7-3.14A10.8,10.8,0,0,0,10,278a10.62,10.62,0,0,0,10,10,10.62,10.62,0,0,0-10,10Z"/><path class="cls-2" d="M534,328a10.62,10.62,0,0,0-10-10,10.62,10.62,0,0,0,10-10,10.62,10.62,0,0,0,10,10,10.62,10.62,0,0,0-10,10Z"/><path class="cls-2" d="M337,262a10.62,10.62,0,0,0-10-10,10.62,10.62,0,0,0,10-10,10.62,10.62,0,0,0,10,10,10.62,10.62,0,0,0-10,10Z"/><path class="cls-2" d="M279,368a10.62,10.62,0,0,0-10-10,10.62,10.62,0,0,0,10-10,10.62,10.62,0,0,0,10,10,10.62,10.62,0,0,0-10,10Z"/><path class="cls-2" d="M182,425a10.62,10.62,0,0,0-10-10,10.62,10.62,0,0,0,10-10,10.62,10.62,0,0,0,10,10,10.62,10.62,0,0,0-10,10Z"/><path class="cls-2" d="M327,439a10.62,10.62,0,0,0-10-10,10.62,10.62,0,0,0,10-10,10.62,10.62,0,0,0,10,10,10.62,10.62,0,0,0-10,10Z"/><path class="cls-2" d="M246,564a10.62,10.62,0,0,0-10-10,10.62,10.62,0,0,0,10-10,10.62,10.62,0,0,0,10,10,10.62,10.62,0,0,0-10,10Z"/><path class="cls-2" d="M219,694a10.62,10.62,0,0,0-10-10,10.62,10.62,0,0,0,10-10,10.62,10.62,0,0,0,10,10,10.62,10.62,0,0,0-10,10Z"/><path class="cls-2" d="M307,782a10.62,10.62,0,0,0-10-10,10.62,10.62,0,0,0,10-10,10.62,10.62,0,0,0,10,10,10.62,10.62,0,0,0-10,10Z"/><path class="cls-2" d="M307,584a10.62,10.62,0,0,0-10-10,10.62,10.62,0,0,0,10-10,10.62,10.62,0,0,0,10,10,10.62,10.62,0,0,0-10,10Z"/></g></svg>