<svg xmlns="http://www.w3.org/2000/svg" viewBox="0 0 507 369"><defs><style>.cls-1{fill:none;stroke:#d4fffd;stroke-miterlimit:10;opacity:0.7;}.cls-2{fill:#55ff9a;}</style></defs><title>elu</title><g id="Layer_1" data-name="Layer 1"><polygon class="cls-1" points="224 356.43 443 237.43 10 136.43 429 10.43 497 121.43 443 237.43 380 359.43 224 356.43"/><polyline class="cls-1" points="224 356.43 99 238.43 10 136.43 69 25.43 497 121.43 99 238.43 380 359.43"/><path class="cls-2" d="M224,366a10.62,10.62,0,0,0-10-10,10.62,10.62,0,0,0,10-10,10.62,10.62,0,0,0,10,10,10.62,10.62,0,0,0-10,10Z"/><path class="cls-2" d="M380,369a10.62,10.62,0,0,0-10-10,10.62,10.62,0,0,0,10-10,10.62,10.62,0,0,0,10,10,10.62,10.62,0,0,0-10,10Z"/><path class="cls-2" d="M443,247a10.62,10.62,0,0,0-10-10,10.62,10.62,0,0,0,10-10,10.62,10.62,0,0,0,10,10,10.62,10.62,0,0,0-10,10Z"/><path class="cls-2" d="M99,248a10.62,10.62,0,0,0-10-10,10.62,10.62,0,0,0,10-10,10.62,10.62,0,0,0,10,10,10.62,10.62,0,0,0-10,10Z"/><path class="cls-2" d="M10,146a10.8,10.8,0,0,0-3-6.86A10.81,10.81,0,0,0,0,136a10.81,10.81,0,0,0,7-3.14A10.8,10.8,0,0,0,10,126a10.62,10.62,0,0,0,10,10,10.62,10.62,0,0,0-10,10Z"/><path class="cls-2" d="M69,35A10.62,10.62,0,0,0,59,25,10.62,10.62,0,0,0,69,15,10.62,10.62,0,0,0,79,25,10.62,10.62,0,0,0,69,35Z"/><path class="cls-2" d="M497,131a10.62,10.62,0,0,0-10-10,10.62,10.62,0,0,0,10-10,10.62,10.62,0,0,0,10,10,10.62,10.62,0,0,0-10,10Z"/><path class="cls-2" d="M429,20a10.62,10.62,0,0,0-10-10,10.81,10.81,0,0,0,7-3.14A10.8,10.8,0,0,0,429,0a10.81,10.81,0,0,0,3.14,7A10.8,10.8,0,0,0,439,10a10.62,10.62,0,0,0-10,10Z"/></g></svg>