<svg xmlns="http://www.w3.org/2000/svg" viewBox="0 0 668 511"><defs><style>.cls-1{fill:none;stroke:#d4fffd;stroke-miterlimit:10;opacity:0.7;}.cls-2{fill:#55ff9a;}</style></defs><title>fen</title><g id="Layer_2" data-name="Layer 2"><polyline class="cls-1" points="658 10.43 10 274.43 184 274.43 658 10.43 510 210.43 622 433.43 318 501.43 510 210.43 184 274.43 318 501.43 10 274.43"/></g><g id="Layer_1" data-name="Layer 1"><path class="cls-2" d="M10,284a10.8,10.8,0,0,0-3-6.86A10.81,10.81,0,0,0,0,274a10.81,10.81,0,0,0,7-3.14A10.8,10.8,0,0,0,10,264a10.62,10.62,0,0,0,10,10,10.62,10.62,0,0,0-10,10Z"/><path class="cls-2" d="M184,284a10.62,10.62,0,0,0-10-10,10.62,10.62,0,0,0,10-10,10.62,10.62,0,0,0,10,10,10.62,10.62,0,0,0-10,10Z"/><path class="cls-2" d="M510,220a10.62,10.62,0,0,0-10-10,10.62,10.62,0,0,0,10-10,10.62,10.62,0,0,0,10,10,10.62,10.62,0,0,0-10,10Z"/><path class="cls-2" d="M622,443a10.62,10.62,0,0,0-10-10,10.62,10.62,0,0,0,10-10,10.62,10.62,0,0,0,10,10,10.62,10.62,0,0,0-10,10Z"/><path class="cls-2" d="M318,511a10.62,10.62,0,0,0-10-10,10.62,10.62,0,0,0,10-10,10.62,10.62,0,0,0,10,10,10.62,10.62,0,0,0-10,10Z"/><path class="cls-2" d="M658,20a10.62,10.62,0,0,0-10-10,10.81,10.81,0,0,0,7-3.14A10.8,10.8,0,0,0,658,0a10.81,10.81,0,0,0,3.14,7A10.8,10.8,0,0,0,668,10a10.62,10.62,0,0,0-10,10Z"/></g></svg>