<svg xmlns="http://www.w3.org/2000/svg" viewBox="0 0 632 861"><defs><style>.cls-1{fill:none;stroke:#d4fffd;stroke-miterlimit:10;opacity:0.7;}.cls-2{fill:#55ff9a;}</style></defs><title>fer</title><g id="Layer_3" data-name="Layer 3"><polyline class="cls-1" points="237.5 343.93 324.5 285.93 257.5 9.93 10 232.43 324 286.43 385 10.43 602 232.43 324 286.43 409 344.43 409 525.43 324 286.43 237 525.43 237 344.43 328 640.43 409 344.43"/><polyline class="cls-1" points="237 525.43 328 640.43 227 851.43 59 715.43 237 525.43"/><polyline class="cls-1" points="409 525.43 328 640.43 480 851.43 622 678.43 409 525.43"/></g><g id="Layer_1" data-name="Layer 1"><path class="cls-2" d="M257,20a10.62,10.62,0,0,0-10-10,10.81,10.81,0,0,0,7-3.14A10.8,10.8,0,0,0,257,0a10.81,10.81,0,0,0,3.14,7A10.8,10.8,0,0,0,267,10a10.62,10.62,0,0,0-10,10Z"/><path class="cls-2" d="M10,242a10.8,10.8,0,0,0-3-6.86A10.81,10.81,0,0,0,0,232a10.81,10.81,0,0,0,7-3.14A10.8,10.8,0,0,0,10,222a10.62,10.62,0,0,0,10,10,10.62,10.62,0,0,0-10,10Z"/><path class="cls-2" d="M324,296a10.62,10.62,0,0,0-10-10,10.62,10.62,0,0,0,10-10,10.62,10.62,0,0,0,10,10,10.62,10.62,0,0,0-10,10Z"/><path class="cls-2" d="M385,20a10.62,10.62,0,0,0-10-10,10.81,10.81,0,0,0,7-3.14A10.8,10.8,0,0,0,385,0a10.81,10.81,0,0,0,3.14,7A10.8,10.8,0,0,0,395,10a10.62,10.62,0,0,0-10,10Z"/><path class="cls-2" d="M602,242a10.62,10.62,0,0,0-10-10,10.62,10.62,0,0,0,10-10,10.62,10.62,0,0,0,10,10,10.62,10.62,0,0,0-10,10Z"/><path class="cls-2" d="M409,354a10.62,10.62,0,0,0-10-10,10.62,10.62,0,0,0,10-10,10.62,10.62,0,0,0,10,10,10.62,10.62,0,0,0-10,10Z"/><path class="cls-2" d="M237,354a10.62,10.62,0,0,0-10-10,10.62,10.62,0,0,0,10-10,10.62,10.62,0,0,0,10,10,10.62,10.62,0,0,0-10,10Z"/><path class="cls-2" d="M237,535a10.62,10.62,0,0,0-10-10,10.62,10.62,0,0,0,10-10,10.62,10.62,0,0,0,10,10,10.62,10.62,0,0,0-10,10Z"/><path class="cls-2" d="M409,535a10.62,10.62,0,0,0-10-10,10.62,10.62,0,0,0,10-10,10.62,10.62,0,0,0,10,10,10.62,10.62,0,0,0-10,10Z"/><path class="cls-2" d="M328,650a10.62,10.62,0,0,0-10-10,10.62,10.62,0,0,0,10-10,10.62,10.62,0,0,0,10,10,10.62,10.62,0,0,0-10,10Z"/><path class="cls-2" d="M480,861a10.62,10.62,0,0,0-10-10,10.62,10.62,0,0,0,10-10,10.62,10.62,0,0,0,10,10,10.62,10.62,0,0,0-10,10Z"/><path class="cls-2" d="M622,688a10.62,10.62,0,0,0-10-10,10.62,10.62,0,0,0,10-10,10.62,10.62,0,0,0,10,10,10.62,10.62,0,0,0-10,10Z"/><path class="cls-2" d="M227,861a10.62,10.62,0,0,0-10-10,10.62,10.62,0,0,0,10-10,10.62,10.62,0,0,0,10,10,10.62,10.62,0,0,0-10,10Z"/><path class="cls-2" d="M59,725a10.62,10.62,0,0,0-10-10,10.62,10.62,0,0,0,10-10,10.62,10.62,0,0,0,10,10,10.62,10.62,0,0,0-10,10Z"/></g></svg>