<svg xmlns="http://www.w3.org/2000/svg" viewBox="0 0 274 914"><defs><style>.cls-1{fill:none;stroke:#d4fffd;stroke-miterlimit:10;opacity:0.7;}.cls-2{fill:#55ff9a;}</style></defs><title>jud</title><g id="Layer_2" data-name="Layer 2"><polyline class="cls-1" points="10.5 284.93 97.5 230.93 208 904.43 175 219.43 112 10.43 97 231.43 175 219.43 264 262.43"/></g><g id="Layer_1" data-name="Layer 1"><path class="cls-2" d="M112,20a10.62,10.62,0,0,0-10-10,10.81,10.81,0,0,0,7-3.14A10.8,10.8,0,0,0,112,0a10.81,10.81,0,0,0,3.14,7A10.8,10.8,0,0,0,122,10a10.62,10.62,0,0,0-10,10Z"/><path class="cls-2" d="M97,241a10.62,10.62,0,0,0-10-10,10.62,10.62,0,0,0,10-10,10.62,10.62,0,0,0,10,10,10.62,10.62,0,0,0-10,10Z"/><path class="cls-2" d="M10,295a10.8,10.8,0,0,0-3-6.86A10.81,10.81,0,0,0,0,285a10.81,10.81,0,0,0,7-3.14A10.8,10.8,0,0,0,10,275a10.62,10.62,0,0,0,10,10,10.62,10.62,0,0,0-10,10Z"/><path class="cls-2" d="M175,229a10.62,10.62,0,0,0-10-10,10.62,10.62,0,0,0,10-10,10.62,10.62,0,0,0,10,10,10.62,10.62,0,0,0-10,10Z"/><path class="cls-2" d="M208,914a10.62,10.62,0,0,0-10-10,10.62,10.62,0,0,0,10-10,10.62,10.62,0,0,0,10,10,10.62,10.62,0,0,0-10,10Z"/><path class="cls-2" d="M264,272a10.62,10.62,0,0,0-10-10,10.62,10.62,0,0,0,10-10,10.62,10.62,0,0,0,10,10,10.62,10.62,0,0,0-10,10Z"/></g></svg>