<svg xmlns="http://www.w3.org/2000/svg" viewBox="0 0 440 709"><defs><style>.cls-1{fill:none;stroke:#d4fffd;stroke-miterlimit:10;opacity:0.7;}.cls-2{fill:#55ff9a;}</style></defs><title>kio</title><g id="Layer_3" data-name="Layer 3"><polyline class="cls-1" points="271 124.43 430 22.43 89 10.43 271 124.43 10 194.43 309 247.43 430 22.43 396 699.43 309 247.43"/></g><g id="Layer_1" data-name="Layer 1"><path class="cls-2" d="M430,32a10.62,10.62,0,0,0-10-10,10.62,10.62,0,0,0,10-10,10.62,10.62,0,0,0,10,10,10.62,10.62,0,0,0-10,10Z"/><path class="cls-2" d="M89,20A10.62,10.62,0,0,0,79,10a10.81,10.81,0,0,0,7-3.14A10.8,10.8,0,0,0,89,0a10.81,10.81,0,0,0,3.14,7A10.8,10.8,0,0,0,99,10,10.62,10.62,0,0,0,89,20Z"/><path class="cls-2" d="M271,134a10.62,10.62,0,0,0-10-10,10.62,10.62,0,0,0,10-10,10.62,10.62,0,0,0,10,10,10.62,10.62,0,0,0-10,10Z"/><path class="cls-2" d="M10,204a10.8,10.8,0,0,0-3-6.86A10.81,10.81,0,0,0,0,194a10.81,10.81,0,0,0,7-3.14A10.8,10.8,0,0,0,10,184a10.62,10.62,0,0,0,10,10,10.62,10.62,0,0,0-10,10Z"/><path class="cls-2" d="M309,257a10.62,10.62,0,0,0-10-10,10.62,10.62,0,0,0,10-10,10.62,10.62,0,0,0,10,10,10.62,10.62,0,0,0-10,10Z"/><path class="cls-2" d="M396,709a10.62,10.62,0,0,0-10-10,10.62,10.62,0,0,0,10-10,10.62,10.62,0,0,0,10,10,10.62,10.62,0,0,0-10,10Z"/></g></svg>