<svg xmlns="http://www.w3.org/2000/svg" viewBox="0 0 661 577"><defs><style>.cls-1{fill:#55ff9a;}.cls-2{fill:none;stroke:#d4fffd;stroke-miterlimit:10;opacity:0.7;}</style></defs><title>per</title><g id="Layer_1" data-name="Layer 1"><path class="cls-1" d="M444,20a10.62,10.62,0,0,0-10-10,10.81,10.81,0,0,0,7-3.14A10.8,10.8,0,0,0,444,0a10.81,10.81,0,0,0,3.14,7A10.8,10.8,0,0,0,454,10a10.62,10.62,0,0,0-10,10Z"/><path class="cls-1" d="M547,104a10.62,10.62,0,0,0-10-10,10.62,10.62,0,0,0,10-10,10.62,10.62,0,0,0,10,10,10.62,10.62,0,0,0-10,10Z"/><path class="cls-1" d="M379,361a10.62,10.62,0,0,0-10-10,10.62,10.62,0,0,0,10-10,10.62,10.62,0,0,0,10,10,10.62,10.62,0,0,0-10,10Z"/><path class="cls-1" d="M379,430a10.62,10.62,0,0,0-10-10,10.62,10.62,0,0,0,10-10,10.62,10.62,0,0,0,10,10,10.62,10.62,0,0,0-10,10Z"/><path class="cls-1" d="M195,405a10.62,10.62,0,0,0-10-10,10.62,10.62,0,0,0,10-10,10.62,10.62,0,0,0,10,10,10.62,10.62,0,0,0-10,10Z"/><path class="cls-1" d="M10,440a10.8,10.8,0,0,0-3-6.86A10.81,10.81,0,0,0,0,430a10.81,10.81,0,0,0,7-3.14A10.8,10.8,0,0,0,10,420a10.62,10.62,0,0,0,10,10,10.62,10.62,0,0,0-10,10Z"/><path class="cls-1" d="M399,577a10.62,10.62,0,0,0-10-10,10.62,10.62,0,0,0,10-10,10.62,10.62,0,0,0,10,10,10.62,10.62,0,0,0-10,10Z"/><path class="cls-1" d="M651,351a10.62,10.62,0,0,0-10-10,10.62,10.62,0,0,0,10-10,10.62,10.62,0,0,0,10,10,10.62,10.62,0,0,0-10,10Z"/><polygon class="cls-2" points="379 351.43 547 94.43 444 10.43 195 395.43 379 351.43"/><polygon class="cls-2" points="379 420.43 10 430.43 399 567.43 651 341.43 379 420.43"/><line class="cls-2" x1="379" y1="351.43" x2="379" y2="420.43"/></g></svg>