<svg xmlns="http://www.w3.org/2000/svg" viewBox="0 0 331 651"><defs><style>.cls-1{fill:none;stroke:#d4fffd;stroke-miterlimit:10;opacity:0.7;}.cls-2{fill:#55ff9a;}</style></defs><title>sat</title><g id="Layer_3" data-name="Layer 3"><polyline class="cls-1" points="101 260.43 11 10.43 311 47.43 101 260.43 10 240.43 321 387.43 136 377.43 34 385.43 311 47.43 101 260.43 136 377.43 215 641.43 34 385.43"/></g><g id="Layer_1" data-name="Layer 1"><path class="cls-2" d="M11,20a10.8,10.8,0,0,0-3-6.86A10.81,10.81,0,0,0,1,10,10.81,10.81,0,0,0,8,6.86,10.8,10.8,0,0,0,11,0a10.81,10.81,0,0,0,3.14,7A10.8,10.8,0,0,0,21,10,10.62,10.62,0,0,0,11,20Z"/><path class="cls-2" d="M311,57a10.62,10.62,0,0,0-10-10,10.62,10.62,0,0,0,10-10,10.62,10.62,0,0,0,10,10,10.62,10.62,0,0,0-10,10Z"/><path class="cls-2" d="M101,270a10.62,10.62,0,0,0-10-10,10.62,10.62,0,0,0,10-10,10.62,10.62,0,0,0,10,10,10.62,10.62,0,0,0-10,10Z"/><path class="cls-2" d="M10,250a10.8,10.8,0,0,0-3-6.86A10.81,10.81,0,0,0,0,240a10.81,10.81,0,0,0,7-3.14A10.8,10.8,0,0,0,10,230a10.62,10.62,0,0,0,10,10,10.62,10.62,0,0,0-10,10Z"/><path class="cls-2" d="M34,395a10.62,10.62,0,0,0-10-10,10.62,10.62,0,0,0,10-10,10.62,10.62,0,0,0,10,10,10.62,10.62,0,0,0-10,10Z"/><path class="cls-2" d="M136,387a10.62,10.62,0,0,0-10-10,10.62,10.62,0,0,0,10-10,10.62,10.62,0,0,0,10,10,10.62,10.62,0,0,0-10,10Z"/><path class="cls-2" d="M321,397a10.62,10.62,0,0,0-10-10,10.62,10.62,0,0,0,10-10,10.62,10.62,0,0,0,10,10,10.62,10.62,0,0,0-10,10Z"/><path class="cls-2" d="M215,651a10.62,10.62,0,0,0-10-10,10.62,10.62,0,0,0,10-10,10.62,10.62,0,0,0,10,10,10.62,10.62,0,0,0-10,10Z"/></g></svg>