<svg xmlns="http://www.w3.org/2000/svg" viewBox="0 0 792 789"><defs><style>.cls-1{fill:none;stroke:#d4fffd;stroke-miterlimit:10;opacity:0.7;}.cls-2{fill:#55ff9a;}</style></defs><title>sol</title><g id="Layer_3" data-name="Layer 3"><polyline class="cls-1" points="10 374 337 305 398 352 9.5 373.5 306.5 478.5 443.5 507.5 508.5 416.5 397.5 351.5 336.5 439.5 443.5 507.5 485.5 778.5 531.5 514.5 781.5 383.5 570.5 363.5 407.5 9.5 336.5 304.5 570.5 363.5 531.5 514.5 443.5 507.5"/></g><g id="Layer_1" data-name="Layer 1"><path class="cls-2" d="M10,384a10.8,10.8,0,0,0-3-6.86A10.81,10.81,0,0,0,0,374a10.81,10.81,0,0,0,7-3.14A10.8,10.8,0,0,0,10,364a10.62,10.62,0,0,0,10,10,10.62,10.62,0,0,0-10,10Z"/><path class="cls-2" d="M337,315a10.62,10.62,0,0,0-10-10,10.62,10.62,0,0,0,10-10,10.62,10.62,0,0,0,10,10,10.62,10.62,0,0,0-10,10Z"/><path class="cls-2" d="M408,20a10.62,10.62,0,0,0-10-10,10.81,10.81,0,0,0,7-3.14A10.8,10.8,0,0,0,408,0a10.81,10.81,0,0,0,3.14,7A10.8,10.8,0,0,0,418,10a10.62,10.62,0,0,0-10,10Z"/><path class="cls-2" d="M571,374a10.62,10.62,0,0,0-10-10,10.62,10.62,0,0,0,10-10,10.62,10.62,0,0,0,10,10,10.62,10.62,0,0,0-10,10Z"/><path class="cls-2" d="M782,394a10.62,10.62,0,0,0-10-10,10.62,10.62,0,0,0,10-10,10.62,10.62,0,0,0,10,10,10.62,10.62,0,0,0-10,10Z"/><path class="cls-2" d="M532,525a10.62,10.62,0,0,0-10-10,10.62,10.62,0,0,0,10-10,10.62,10.62,0,0,0,10,10,10.62,10.62,0,0,0-10,10Z"/><path class="cls-2" d="M486,789a10.62,10.62,0,0,0-10-10,10.62,10.62,0,0,0,10-10,10.62,10.62,0,0,0,10,10,10.62,10.62,0,0,0-10,10Z"/><path class="cls-2" d="M444,518a10.62,10.62,0,0,0-10-10,10.62,10.62,0,0,0,10-10,10.62,10.62,0,0,0,10,10,10.62,10.62,0,0,0-10,10Z"/><path class="cls-2" d="M509,427a10.62,10.62,0,0,0-10-10,10.62,10.62,0,0,0,10-10,10.62,10.62,0,0,0,10,10,10.62,10.62,0,0,0-10,10Z"/><path class="cls-2" d="M398,362a10.62,10.62,0,0,0-10-10,10.62,10.62,0,0,0,10-10,10.62,10.62,0,0,0,10,10,10.62,10.62,0,0,0-10,10Z"/><path class="cls-2" d="M337,450a10.62,10.62,0,0,0-10-10,10.62,10.62,0,0,0,10-10,10.62,10.62,0,0,0,10,10,10.62,10.62,0,0,0-10,10Z"/><path class="cls-2" d="M307,489a10.62,10.62,0,0,0-10-10,10.62,10.62,0,0,0,10-10,10.62,10.62,0,0,0,10,10,10.62,10.62,0,0,0-10,10Z"/></g></svg>