<svg xmlns="http://www.w3.org/2000/svg" viewBox="0 0 836 825"><defs><style>.cls-1{fill:none;stroke:#d4fffd;stroke-miterlimit:10;opacity:0.7;}.cls-2{fill:#55ff9a;}</style></defs><title>ten</title><g id="Layer_3" data-name="Layer 3"><polyline class="cls-1" points="480.5 615.5 400.5 465.5 620.5 568.5 825.5 733.5 505.5 814.5 480.5 615.5 9.5 192.5 400.5 465.5 540.5 426.5 733.5 9.5 620.5 568.5"/></g><g id="Layer_1" data-name="Layer 1"><path class="cls-2" d="M10,203a10.8,10.8,0,0,0-3-6.86A10.81,10.81,0,0,0,0,193a10.81,10.81,0,0,0,7-3.14A10.8,10.8,0,0,0,10,183a10.62,10.62,0,0,0,10,10,10.62,10.62,0,0,0-10,10Z"/><path class="cls-2" d="M401,476a10.62,10.62,0,0,0-10-10,10.62,10.62,0,0,0,10-10,10.62,10.62,0,0,0,10,10,10.62,10.62,0,0,0-10,10Z"/><path class="cls-2" d="M541,437a10.62,10.62,0,0,0-10-10,10.62,10.62,0,0,0,10-10,10.62,10.62,0,0,0,10,10,10.62,10.62,0,0,0-10,10Z"/><path class="cls-2" d="M734,20a10.62,10.62,0,0,0-10-10,10.81,10.81,0,0,0,7-3.14A10.8,10.8,0,0,0,734,0a10.81,10.81,0,0,0,3.14,7A10.8,10.8,0,0,0,744,10a10.62,10.62,0,0,0-10,10Z"/><path class="cls-2" d="M621,579a10.62,10.62,0,0,0-10-10,10.62,10.62,0,0,0,10-10,10.62,10.62,0,0,0,10,10,10.62,10.62,0,0,0-10,10Z"/><path class="cls-2" d="M481,626a10.62,10.62,0,0,0-10-10,10.62,10.62,0,0,0,10-10,10.62,10.62,0,0,0,10,10,10.62,10.62,0,0,0-10,10Z"/><path class="cls-2" d="M506,825a10.62,10.62,0,0,0-10-10,10.62,10.62,0,0,0,10-10,10.62,10.62,0,0,0,10,10,10.62,10.62,0,0,0-10,10Z"/><path class="cls-2" d="M826,744a10.62,10.62,0,0,0-10-10,10.62,10.62,0,0,0,10-10,10.62,10.62,0,0,0,10,10,10.62,10.62,0,0,0-10,10Z"/></g></svg>