<svg id="Layer_1" data-name="Layer 1" xmlns="http://www.w3.org/2000/svg" viewBox="0 0 400 400"><defs><style>.cls-1{fill:#fff;}</style></defs><title>about-icon</title><circle class="cls-1" cx="200" cy="200" r="200"/><path d="M77.46,75.72a42.48,42.48,0,0,1,37.35-15q2,.23,4,.65h0c-22-.43-41.08,16.48-43.7,39.48,1.11,27.74,14.7,53.35,35.14,70.68C115.48,129.1,132.86,64,189.38,42.89c0,0,21.35-6.11,22.57,14.72,0,0-.6,12.06-22.86,39.47-20.73,25.53-51.43,80.25-45.94,92.77q3.53,1.12,7.15,1.95c7.36.05,20.54.92,28,6.07,0,0,29.16-66.1,87.52-78.44a186.16,186.16,0,0,1,20-3.16c-3.68-16.78-16.57-30.34-33.46-33.92h0q2,0,4,.27a43.2,43.2,0,0,1,33.26,23.13,96.39,96.39,0,0,0-30.44-69.36c25.1,17.21,39.24,46.49,40.6,79.16,33.4,0,46.85,13.74,44.7,20.51-2.77,8.72-3.88,23.34-49.57,24.76-.93,0-1.86.09-2.8.15a80.75,80.75,0,0,1-19.85,28.76s-29.19,27.69-40.89,27.42c-7.32-.17-16.66,2.8-22.63,5,7.76,14.58,19.51,41.81,15,66.5-6.6,35.87-48.61,28.67-48.61,28.67s-.6,9.92,5.81,14.46c0,0,75.37-33.69,121.77-3.17a225.55,225.55,0,0,1,24.94,25.4,199.58,199.58,0,0,0,72.35-154c0-110.46-89.54-200-200-200a199.24,199.24,0,0,0-83.52,18.23A94.88,94.88,0,0,0,77.46,75.72ZM230.32,36h0Z"/><path d="M268.59,166.36c-21.9,8.09-41.78,23.28-53.87,33.82A98.39,98.39,0,0,0,268.59,166.36Z"/><path d="M108,209.79s-.18-4.93.14-13.11c-12-6-31.54-35.08-31.54-35.08-13.07-18.5-17.6-44-13.38-68.31,5-28.92,19.49-53.67,40.9-68.76A200,200,0,0,0,79.85,360,280.21,280.21,0,0,1,108,209.79Z"/></svg>