<svg id="Layer_1" data-name="Layer 1" xmlns="http://www.w3.org/2000/svg" viewBox="0 0 400 400"><defs><style>.cls-1{fill:#fff;}</style></defs><title>contact-icon</title><circle class="cls-1" cx="200" cy="200" r="198"/><path d="M399.3,198.44c-6,1.68-12,3-18,4.25s-12,2.4-18,3.51c-24,4.42-48.11,8.35-72.14,12.49s-48,8.29-71.8,13.5c-5.93,1.31-11.85,2.68-17.67,4.25-2.9.79-5.8,1.63-8.56,2.61-1,.37-2.06.77-3,1.2.52.12,1.06.23,1.62.33,1.42.24,2.89.42,4.37.58,3,.3,6,.49,9,.64,6,.29,12.12.41,18.2.47,12.16.13,24.35.05,36.53-.08,3.07,0,6.16,0,9.27.1,1.56.07,3.12.17,4.71.34a25.52,25.52,0,0,1,4.95,1,9,9,0,0,1,1.41.59,4.73,4.73,0,0,1,1.67,1.39,3.46,3.46,0,0,1,.62,1.52,3.51,3.51,0,0,1-.15,1.59,5,5,0,0,1-1.09,1.78,11.89,11.89,0,0,1-2.19,1.8c-.72.47-1.43.88-2.14,1.27a83.12,83.12,0,0,1-8.59,3.85c-5.76,2.26-11.57,4.22-17.39,6.11s-11.67,3.67-17.53,5.41c-11.71,3.49-23.48,6.75-35.25,10l-35.32,9.58c-11.76,3.22-23.54,6.38-35.13,10-2.89.91-5.77,1.85-8.55,2.92-1,.38-2,.79-2.86,1.23a77.19,77.19,0,0,0,8.61.4c3,0,6.07,0,9.12-.06,12.18-.2,24.4-.48,36.62-.37,6.11,0,12.22.2,18.33.51,3.06.17,6.1.31,9.19.63a39,39,0,0,1,4.65.73,9.76,9.76,0,0,1,2.43.85,2.47,2.47,0,0,1,1.27,1.43,1.83,1.83,0,0,1-.11,1.25,2.73,2.73,0,0,1-.51.74,8.29,8.29,0,0,1-2.16,1.48c-.72.37-1.44.68-2.17,1-1.45.58-2.91,1.08-4.38,1.55-2.93.93-5.89,1.74-8.85,2.51-5.92,1.53-11.88,2.87-17.85,4.16-23.88,5.08-47.92,9.28-72,13.14q18-3.28,35.93-6.91c12-2.39,23.9-4.87,35.77-7.62,5.93-1.38,11.85-2.82,17.71-4.44,2.93-.81,5.84-1.66,8.71-2.63,1.43-.48,2.85-1,4.22-1.58.68-.29,1.35-.6,2-.93a6.62,6.62,0,0,0,1.6-1.1l.07-.08a.93.93,0,0,0-.22-.14,8,8,0,0,0-1.89-.61,37.06,37.06,0,0,0-4.39-.61c-3-.26-6-.35-9.07-.47-6.08-.2-12.16-.26-18.25-.26-12.17,0-24.35.42-36.55.74-3.05.07-6.11.14-9.18.16a75.9,75.9,0,0,1-9.36-.37c-.41-.06-.83-.13-1.28-.24a4.7,4.7,0,0,1-1.59-.66,2.58,2.58,0,0,1-.58-.57,2.09,2.09,0,0,1-.38-1.15,2.33,2.33,0,0,1,.6-1.57,5.43,5.43,0,0,1,1.25-1,28.91,28.91,0,0,1,4.4-2.09c2.9-1.15,5.81-2.13,8.72-3.08,11.67-3.75,23.43-7,35.17-10.34l35.22-9.9c11.73-3.33,23.44-6.71,35.09-10.21,5.83-1.76,11.64-3.56,17.41-5.46s11.51-3.87,17.1-6.09a79.12,79.12,0,0,0,8.08-3.67c.63-.34,1.23-.7,1.79-1.07.29-.19.56-.39.81-.59a21.62,21.62,0,0,0-4-.73c-1.44-.15-2.92-.24-4.41-.3-3-.12-6-.11-9-.06-12.2.18-24.41.34-36.64.24-6.12-.06-12.24-.17-18.38-.45-3.07-.15-6.15-.33-9.25-.64-1.55-.16-3.11-.34-4.7-.62-.8-.14-1.6-.3-2.43-.51a12,12,0,0,1-2.71-1,5.38,5.38,0,0,1-.85-.57,3.75,3.75,0,0,1-1-1.19,3.29,3.29,0,0,1-.31-2.16,3.8,3.8,0,0,1,.69-1.48,6.22,6.22,0,0,1,1.38-1.29,12.08,12.08,0,0,1,1.21-.75,33.88,33.88,0,0,1,4.54-1.95c3-1.07,6-1.93,8.93-2.74,6-1.62,11.92-3,17.89-4.33,23.9-5.27,48-9.5,72-13.63s48.14-8,72.09-12.38c6-1.1,12-2.24,17.91-3.46s11.88-2.53,17.64-4.14l1.9-.56c0-.94-.06-1.88-.11-2.82-4.94-.75-10.09-1.11-15.18-1.46-24.26-1.48-48.65-1.85-73-2.42-12.2-.27-24.4-.55-36.61-1q-9.16-.35-18.33-.94c-6.11-.42-12.23-.9-18.37-1.83-1.54-.24-3.08-.51-4.63-.86a25.29,25.29,0,0,1-4.74-1.48,9.28,9.28,0,0,1-1.26-.69,5.11,5.11,0,0,1-1.33-1.23,3.33,3.33,0,0,1-.63-2.48,4,4,0,0,1,.91-1.92,9.22,9.22,0,0,1,2.2-1.84,23,23,0,0,1,2.18-1.2,71.48,71.48,0,0,1,8.77-3.38c2.94-1,5.89-1.81,8.85-2.63,11.84-3.22,23.77-5.85,35.72-8.38q9-1.88,17.95-3.65c6-1.24,11.94-2.41,17.89-3.71s11.9-2.58,17.81-4l8.88-2.13,8.84-2.29C366.5,138,377.3,135,388,131.53A200.08,200.08,0,0,0,200,0C89.54,0,0,89.54,0,200S89.54,400,200,400s200-89.54,200-200c0-.59,0-1.17,0-1.76Z"/><path d="M356.3,143.24l-8.85,2.38-8.89,2.23c-5.92,1.53-11.88,2.83-17.83,4.23s-11.94,2.59-17.9,3.89-11.93,2.5-17.87,3.81c-11.89,2.63-23.76,5.37-35.43,8.67-2.91.83-5.81,1.71-8.66,2.66a68.2,68.2,0,0,0-8.26,3.27,19.38,19.38,0,0,0-1.81,1,6.07,6.07,0,0,0-1.25,1,4.58,4.58,0,0,0,.92.52,21.89,21.89,0,0,0,4,1.19c1.43.31,2.89.55,4.37.77,5.93.84,12,1.27,18,1.62s12.14.57,18.22.77c12.17.4,24.35.62,36.55.83,24.39.45,48.79.7,73.24,2.07,3.06.18,6.13.41,9.2.7,1.79.18,3.59.37,5.39.62a199,199,0,0,0-10.85-52.13C378,137,367.15,140.23,356.3,143.24Z"/><path d="M188.08,239.56s0,0,0,0Z"/><path class="cls-1" d="M179.77,146.48l62.43-92.59s-23.66,18-78.72,73.52S91,325.07,91,325.07l3.31-4.28,10-47.34c1.29-6.07,5.72-24.52,8.62-35.59a104.9,104.9,0,0,1,3.93-12l17.91-45.29s-28.79,96.41-30.06,101c-.09.08,15.3-12.8,42.29-42.73.78-.86,1.54-1.74,2.3-2.64l-8.83,2,10.56-4c2.45-3,4.81-6.21,7.07-9.52l-15,9.43,20.45-18A260.86,260.86,0,0,0,185.28,169L151.83,181.6l35.1-17.48c1.05-3.18,2-6.26,2.86-9.17l-45.62,28.58,47.63-35.9a110,110,0,0,0,3.13-15.87,13.23,13.23,0,0,1,.28-1.69h0Z"/></svg>