<?xml version="1.0" encoding="utf-8"?>
<!-- Generator: Adobe Illustrator 21.0.2, SVG Export Plug-In . SVG Version: 6.00 Build 0)  -->
<svg version="1.1" id="Layer_1" xmlns="http://www.w3.org/2000/svg" xmlns:xlink="http://www.w3.org/1999/xlink" x="0px" y="0px"
	 viewBox="0 0 494.2 358" style="enable-background:new 0 0 494.2 358;" xml:space="preserve">
<style type="text/css">
	.st0{fill:#E65A4D;}
	.st1{fill:#F6F4EC;}
	.st2{fill:#E6E3D6;}
	.st3{fill:#B6B5AC;}
	.st4{fill:#B1392F;}
	.st5{fill:#BEBDB3;}
	.st6{fill:#C7C5BB;}
	.st7{fill:#C4C2B8;}
	.st8{fill:#C2C0B6;}
</style>
<g>
	<path class="st0" d="M451,1.5c4.5-2.7,9.1-1.2,13.5,0c17.1,4.7,29.2,20.4,29.5,38.3c0.1,4.5-0.1,9-0.1,13.4c-1.3,0-2.1,0.8-3.1,1.5
		c-12.6,9-25.4,18-37.9,27.1c-5.1,3.7-10.7,6.6-15,11.3c-1.8,0-3.1,1.2-4.4,2.1c-41.6,28.7-83.2,57.3-124.7,86
		c-20.6,14.2-41.2,28.6-61.8,42.9c-0.6,0-1.2,0-1.7,0c-0.9-0.7-1.7-1.6-2.6-2.2C192,186.6,141.3,151.3,90.6,116
		c-10.4-7.2-20.8-14.5-31.2-21.7c-1.2-0.8-2.3-2.5-3.8-1.6c-1.4,0.8-0.5,2.7-0.7,4.2c-0.1,0.5,0,1,0,1.5c0,83.5,0,167,0,250.5
		c0,1.8,0.1,3.7,0.2,5.5c0,1-0.1,1.9-0.1,2.9c-19,2.3-36.3-0.3-48.2-17.5C2.5,333.5,0,326.5,0,318.7c0-93.3-0.1-186.5,0.1-279.8
		c0-19,15.4-35.8,34.3-38.5c3-0.4,6-0.8,8.6,1.2c0.6,0.6,1.1,1.2,1.8,1.7c66.1,49,132.2,98,198.3,147.1c2.6,1.9,4.3,1.8,6.9-0.1
		c52.8-39,105.7-77.9,158.5-116.8C422.5,22.8,436.7,12.1,451,1.5z"/>
	<path class="st1" d="M451,1.5c-14.3,10.6-28.5,21.3-42.8,31.9c-52.8,39-105.7,77.8-158.5,116.8c-2.6,1.9-4.2,2-6.9,0.1
		c-66-49.1-132.1-98-198.2-147.1c-0.7-0.5-1.2-1.1-1.8-1.7c1.2-2,3.3-1.3,5-1.3c132.7,0,265.5,0,398.2,0
		C447.7,0.2,449.7-0.5,451,1.5z"/>
	<path class="st2" d="M54.9,354.2c-0.1-1.8-0.2-3.7-0.2-5.5c0-83.5,0-167,0-250.5c0-0.5-0.1-1,0-1.5c0.2-1.4-0.7-3.3,0.7-4.2
		c1.5-0.9,2.7,0.8,3.8,1.6c10.4,7.2,20.8,14.5,31.2,21.7c50.7,35.3,101.4,70.6,152.1,105.9c0.9,0.7,1.8,1.5,2.6,2.2
		c-0.4,0.4-0.9,0.7-1.3,1.1c-0.3,0.3-0.7,0.7-1,1c-0.8,0-1.6,0.2-2,1c-0.3,0.3-0.7,0.7-1,1c-0.1,0.2-0.3,0.3-0.4,0.5
		c0.2-0.1,0.3-0.3,0.5-0.4c0.3-0.3,0.7-0.7,1-1c0.8,0,1.6-0.2,2-1c0.3-0.3,0.7-0.7,1-1c1,0,2-0.1,3-0.1c13.9,9.7,27.9,19.3,41.8,29
		c41.4,28.7,82.8,57.3,124.1,86.2c7.4,5.2,15.5,9.7,22.1,16c-1.8,1.7-4,0.6-6,0.9c0.1-2.3-1.9-2.9-3.4-3.9
		c-7.6-5.3-15.4-10.4-22.8-15.9c-12.4-9.1-25-17.8-37.6-26.6c-10.5-7.3-20.9-14.9-31.7-21.8c-9.4-6-18.1-13.2-27.5-19.3
		c-10.6-6.8-20.6-14.4-31.1-21.3c-8.7-5.7-17.2-11.8-25.7-17.8c-1.7-1.2-3.2-1.7-5-0.5c-3.6,2.6-8.2,4.3-11.2,7.1
		c-8.6,7.9-19.1,13-28.1,20.2c-11.5,9.1-23.9,17.2-36.2,25.3c-20.4,13.5-40.2,28.1-60.5,41.7C96,332.4,84,340.6,72.4,349.5
		c-3.2,2.4-7.5,3.5-9.5,7.5c-2-0.2-4.2,0.6-6.1-0.7c35.8-25,71.6-49.9,107.3-74.9c4.7-3.3,10-5.9,13.9-10.3c0.7-0.2,1.6-0.3,1.5-1.3
		c0-0.1-0.2-0.3-0.3-0.3c-1-0.1-1.2,0.7-1.4,1.4c-3.6,0.2-5.8,3-8.5,4.8C131.2,302,93,328.1,54.9,354.2z M226.9,237.2
		c0.3-0.3,0.7-0.7,1-1c0.8,0,1.6-0.2,2-1c0.3-0.3,0.7-0.7,1-1c0.8,0,1.6-0.2,2-1c0.1-0.2,0.3-0.3,0.4-0.5c-0.2,0.1-0.3,0.3-0.5,0.4
		c-0.8,0-1.6,0.2-2,1c-0.3,0.3-0.7,0.7-1,1c-0.8,0-1.6,0.2-2,1C227.5,236.5,227.2,236.8,226.9,237.2c-0.2,0.1-0.4,0.2-0.5,0.4
		C226.6,237.5,226.8,237.4,226.9,237.2z M213.9,246.1c-0.8,0-1.6,0.2-2,1c-0.6,0.1-1.4,0.1-1.5,1c0,0.2,0.4,0.6,0.6,0.6
		c0.8-0.1,0.9-0.8,1-1.4C212.8,247.2,213.5,247.1,213.9,246.1c0.4-0.2,0.8-0.6,1.1-0.9c0.8,0,1.6-0.2,2-1c0.3-0.3,0.7-0.7,1-1
		c0.8,0,1.6-0.2,2-1c0.1-0.2,0.3-0.3,0.4-0.5c-0.2,0.1-0.3,0.3-0.5,0.4c-0.8,0-1.6,0.2-2,1c-0.3,0.3-0.7,0.7-1,1c-0.8,0-1.6,0.2-2,1
		C214.5,245.5,214.2,245.8,213.9,246.1z M200.9,255.2c-0.8,0-1.6,0.2-2,1c-0.8,0.1-1.6,0.2-1.5,1.3c0,0.1,0.2,0.3,0.3,0.3
		c1.1,0.1,1.2-0.7,1.3-1.5C199.8,256.2,200.5,256,200.9,255.2c0.4-0.2,0.7-0.6,1.1-0.9c0.8,0,1.6-0.2,2-1c0.3-0.3,0.7-0.7,1-1
		c0.8,0,1.6-0.2,2-1c0.1-0.2,0.3-0.3,0.4-0.5c-0.2,0.1-0.3,0.3-0.5,0.4c-0.8,0-1.6,0.2-2,1c-0.3,0.3-0.7,0.7-1,1c-0.8,0-1.6,0.2-2,1
		C201.5,254.5,201.2,254.8,200.9,255.2z M190.9,262.3c0.8-0.1,1.6-0.2,1.5-1.3c0-0.1-0.2-0.3-0.3-0.3c-1.1-0.1-1.2,0.7-1.3,1.5
		c-0.8,0-1.5,0.2-2,1c-1.4,0.1-2.4,0.8-3,2c-0.7,0.2-1.6,0.2-1.5,1.3c0,0.1,0.2,0.3,0.3,0.3c1,0.1,1.2-0.7,1.3-1.5
		c1.4,0,2.8-0.1,3-2C189.8,263.2,190.5,263,190.9,262.3z M223.7,238.6c-0.1,0.3-0.3,0.6-0.4,0.8c0.3,0.1,0.6,0.4,0.8,0.3
		s0.3-0.5,0.4-0.8C224.2,238.8,223.9,238.7,223.7,238.6z M195.6,259.3c-0.1-0.3-0.2-0.7-0.4-0.7c-0.2-0.1-0.7,0.1-0.8,0.3
		c-0.3,0.4-0.1,0.9,0.4,0.9C195.1,259.8,195.3,259.5,195.6,259.3z M237.2,230.8c0.1-0.3,0.2-0.6,0.4-0.8c-0.3-0.1-0.6-0.4-0.8-0.3
		s-0.3,0.5-0.4,0.8C236.6,230.6,236.9,230.7,237.2,230.8z M182.6,268.2c-0.2-0.3-0.4-0.6-0.5-0.7c-0.2,0-0.7,0.2-0.7,0.4
		c-0.2,0.5,0.1,0.9,0.6,0.8C182.2,268.7,182.4,268.4,182.6,268.2z"/>
	<path class="st3" d="M434.9,356.3c-6.6-6.4-14.6-10.8-22.1-16c-41.3-28.8-82.7-57.5-124.1-86.2c-13.9-9.7-27.9-19.3-41.8-29
		c0-0.3-0.1-0.7-0.1-1c20.6-14.3,41.2-28.6,61.8-42.9c41.6-28.7,83.2-57.3,124.7-86c1.3-0.9,2.6-2.1,4.4-2.1c0,88,0,176,0,264.1
		C436.9,356.9,435.9,356.6,434.9,356.3z"/>
	<path class="st2" d="M62.9,357.2c1.9-4,6.3-5.1,9.5-7.5c11.6-8.8,23.6-17.1,35.7-25.2c20.3-13.7,40.1-28.2,60.5-41.7
		c12.3-8.1,24.7-16.2,36.2-25.3c9.1-7.2,19.5-12.3,28.1-20.2c3.1-2.8,7.6-4.5,11.2-7.1c1.7-1.3,3.2-0.8,5,0.5
		c8.5,6,17,12.1,25.7,17.8c10.5,6.9,20.5,14.6,31.1,21.3c9.4,6,18.1,13.2,27.5,19.3c10.8,6.9,21.2,14.5,31.7,21.8
		c12.6,8.8,25.3,17.5,37.6,26.6c7.5,5.5,15.2,10.6,22.8,15.9c1.4,1,3.5,1.6,3.4,3.9C306.9,357.2,184.9,357.2,62.9,357.2z"/>
	<path class="st4" d="M437.9,357.2c0-88,0-176,0-264.1c4.3-4.7,9.9-7.6,15-11.3c12.6-9.2,25.3-18.1,37.9-27.1
		c0.9-0.7,1.8-1.5,3.1-1.5c0.1,1.7,0.2,3.3,0.2,5c0,85.1,0,170.3,0.1,255.4c0,5.8-0.2,11.6-1.6,17.4c-2.5,10.7-8.9,18.1-19.3,21.8
		C461.8,356.8,449.9,357.9,437.9,357.2z"/>
	<path class="st5" d="M178,271.3c-3.9,4.4-9.2,7-13.9,10.3c-35.7,25-71.5,50-107.3,74.9c-0.7,0.2-1.3,0.4-2,0.6c0-1,0.1-1.9,0.1-2.9
		c38.2-26.1,76.3-52.2,114.5-78.3c2.7-1.8,4.8-4.7,8.5-4.8L178,271.3z"/>
	<path class="st6" d="M246.9,224.1c0,0.3,0,0.7,0.1,1c-1,0-2,0.1-3,0.1l0,0c0.4-0.4,0.9-0.7,1.3-1.1
		C245.7,224.1,246.3,224.1,246.9,224.1z"/>
	<path class="st5" d="M185.8,265.1c0.6-1.2,1.6-1.9,3-2l0.1,0.1c-0.2,1.9-1.6,2-3,2L185.8,265.1z"/>
	<path class="st7" d="M223.7,238.6c0.3,0.1,0.6,0.2,0.8,0.3c-0.1,0.3-0.2,0.7-0.4,0.8c-0.2,0.1-0.5-0.2-0.8-0.3
		C223.4,239.2,223.5,238.9,223.7,238.6z"/>
	<path class="st5" d="M190.8,262.1c0.1-0.8,0.3-1.5,1.3-1.5c0.1,0,0.3,0.2,0.3,0.3c0,1.1-0.8,1.1-1.5,1.3
		C190.9,262.3,190.8,262.1,190.8,262.1z"/>
	<path class="st5" d="M195.6,259.3c-0.2,0.2-0.5,0.5-0.7,0.4c-0.5,0-0.7-0.5-0.4-0.9c0.1-0.2,0.6-0.3,0.8-0.3
		C195.4,258.6,195.4,259.1,195.6,259.3z"/>
	<path class="st6" d="M237.2,230.8c-0.3-0.1-0.6-0.2-0.8-0.4c0.1-0.3,0.2-0.7,0.4-0.8c0.2-0.1,0.5,0.2,0.8,0.3
		C237.4,230.2,237.3,230.5,237.2,230.8z"/>
	<path class="st5" d="M199,256.3c-0.1,0.8-0.3,1.5-1.3,1.5c-0.1,0-0.3-0.2-0.3-0.3c0-1.1,0.8-1.1,1.5-1.3
		C198.9,256.2,199,256.3,199,256.3z"/>
	<path class="st8" d="M212,247.3c-0.1,0.7-0.2,1.3-1,1.4c-0.2,0-0.6-0.4-0.6-0.6c0.1-0.8,0.8-0.9,1.5-1
		C211.9,247.2,212,247.3,212,247.3z"/>
	<path class="st5" d="M186,265.3c-0.2,0.8-0.3,1.5-1.3,1.5c-0.1,0-0.3-0.2-0.3-0.3c-0.1-1.1,0.8-1.1,1.5-1.3
		C185.8,265.1,186,265.3,186,265.3z"/>
	<path class="st5" d="M182.6,268.2c-0.2,0.2-0.4,0.5-0.6,0.5c-0.6,0.1-0.8-0.3-0.6-0.8c0.1-0.2,0.5-0.4,0.7-0.4
		C182.2,267.6,182.4,268,182.6,268.2z"/>
	<path class="st5" d="M177.8,271.1c0.2-0.8,0.3-1.5,1.4-1.4c0.1,0,0.3,0.2,0.3,0.3c0.1,1.1-0.8,1.1-1.5,1.3
		C178,271.3,177.8,271.1,177.8,271.1z"/>
	<path class="st7" d="M229.9,235.2c-0.4,0.8-1.2,1-2,1l-0.1-0.1C228.3,235.4,229,235.2,229.9,235.2L229.9,235.2z"/>
	<path class="st5" d="M188.9,263.1c0.4-0.8,1.2-1,2-1l0.1,0.1c-0.4,0.8-1.2,1-2,1C189,263.3,188.9,263.1,188.9,263.1z"/>
	<path class="st8" d="M217.9,243.2c0.4-0.8,1.2-1,2-1l0.1,0.1C219.5,243,218.8,243.2,217.9,243.2L217.9,243.2z"/>
	<path class="st8" d="M216.9,244.2c-0.4,0.8-1.2,1-2,1l0,0C215.3,244.4,216,244.2,216.9,244.2L216.9,244.2z"/>
	<path class="st5" d="M204.9,252.2c0.4-0.8,1.2-1,2-1l0.1,0.1C206.5,252,205.8,252.2,204.9,252.2L204.9,252.2z"/>
	<path class="st5" d="M203.9,253.2c-0.4,0.8-1.2,1-2,1l0,0C202.3,253.3,203,253.2,203.9,253.2L203.9,253.2z"/>
	<path class="st5" d="M200.9,255.2c-0.4,0.8-1.2,1-2,1l-0.1-0.1C199.3,255.4,200,255.2,200.9,255.2L200.9,255.2z"/>
	<path class="st6" d="M242.9,226.2c-0.4,0.8-1.2,1-2,1l-0.1-0.1C241.3,226.4,242,226.2,242.9,226.2L242.9,226.2z"/>
	<path class="st7" d="M230.9,234.2c0.4-0.8,1.2-1,2-1l0,0C232.5,234,231.8,234.2,230.9,234.2L230.9,234.2z"/>
	<path class="st8" d="M213.9,246.2c-0.4,0.8-1.2,1-2,1l-0.1-0.1C212.3,246.4,213,246.2,213.9,246.2
		C213.9,246.1,213.9,246.2,213.9,246.2z"/>
	<path class="st5" d="M203.9,253.2c0.3-0.3,0.7-0.7,1-1l0.1,0.1C204.6,252.6,204.3,252.9,203.9,253.2L203.9,253.2z"/>
	<path class="st8" d="M214.9,245.2c-0.3,0.3-0.7,0.7-1,1l-0.1-0.1C214.2,245.8,214.5,245.5,214.9,245.2L214.9,245.2z"/>
	<path class="st7" d="M226.9,237.2c0.3-0.3,0.7-0.7,1-1l0.1,0.1C227.6,236.6,227.3,236.9,226.9,237.2L226.9,237.2z"/>
	<path class="st8" d="M219.9,242.2c0.2-0.1,0.3-0.3,0.5-0.4C220.2,241.9,220.1,242.1,219.9,242.2L219.9,242.2z"/>
	<path class="st7" d="M232.9,233.2c0.2-0.1,0.3-0.3,0.5-0.4C233.2,232.9,233.1,233.1,232.9,233.2L232.9,233.2z"/>
	<path class="st6" d="M239.9,228.2c-0.2,0.1-0.3,0.3-0.5,0.4C239.6,228.5,239.7,228.3,239.9,228.2L239.9,228.2z"/>
	<path class="st6" d="M239.9,228.2c0.3-0.3,0.7-0.7,1-1l0.1,0.1C240.6,227.6,240.3,227.9,239.9,228.2L239.9,228.2z"/>
	<path class="st7" d="M229.9,235.2c0.3-0.3,0.7-0.7,1-1l0.1,0.1C230.6,234.6,230.3,234.9,229.9,235.2L229.9,235.2z"/>
	<path class="st6" d="M243.9,225.2c-0.3,0.3-0.7,0.7-1,1l-0.1-0.1C243.2,225.8,243.5,225.5,243.9,225.2L243.9,225.2z"/>
	<path class="st7" d="M226.9,237.2c-0.2,0.1-0.3,0.3-0.5,0.4C226.6,237.5,226.7,237.3,226.9,237.2L226.9,237.2z"/>
	<path class="st5" d="M206.9,251.2c0.2-0.1,0.3-0.3,0.5-0.4C207.2,250.9,207.1,251.1,206.9,251.2L206.9,251.2z"/>
	<path class="st8" d="M217.9,243.2c-0.3,0.3-0.7,0.7-1,1l-0.1-0.1C217.2,243.8,217.5,243.5,217.9,243.2L217.9,243.2z"/>
	<path class="st5" d="M201.9,254.2c-0.3,0.3-0.7,0.7-1,1l-0.1-0.1C201.2,254.8,201.5,254.5,201.9,254.2L201.9,254.2z"/>
</g>
</svg>
