<?xml version="1.0" encoding="UTF-8"?>
<!DOCTYPE svg PUBLIC "-//W3C//DTD SVG 1.1//EN" "http://www.w3.org/Graphics/SVG/1.1/DTD/svg11.dtd">
<svg version="1.2" width="205.55mm" height="274.93mm" viewBox="0 0 20555 27493" preserveAspectRatio="xMidYMid" fill-rule="evenodd" stroke-width="28.222" stroke-linejoin="round" xmlns="http://www.w3.org/2000/svg" xmlns:ooo="http://xml.openoffice.org/svg/export" xmlns:xlink="http://www.w3.org/1999/xlink" xmlns:presentation="http://sun.com/xmlns/staroffice/presentation" xmlns:smil="http://www.w3.org/2001/SMIL20/" xmlns:anim="urn:oasis:names:tc:opendocument:xmlns:animation:1.0" xml:space="preserve">
 <defs class="ClipPathGroup">
  <clipPath id="presentation_clip_path" clipPathUnits="userSpaceOnUse">
   <rect x="0" y="0" width="20555" height="27493"/>
  </clipPath>
 </defs>
 <defs class="TextShapeIndex">
  <g ooo:slide="id1" ooo:id-list="id3 id4 id5"/>
 </defs>
 <defs class="EmbeddedBulletChars">
  <g id="bullet-char-template(57356)" transform="scale(0.00048828125,-0.00048828125)">
   <path d="M 580,1141 L 1163,571 580,0 -4,571 580,1141 Z"/>
  </g>
  <g id="bullet-char-template(57354)" transform="scale(0.00048828125,-0.00048828125)">
   <path d="M 8,1128 L 1137,1128 1137,0 8,0 8,1128 Z"/>
  </g>
  <g id="bullet-char-template(10146)" transform="scale(0.00048828125,-0.00048828125)">
   <path d="M 174,0 L 602,739 174,1481 1456,739 174,0 Z M 1358,739 L 309,1346 659,739 1358,739 Z"/>
  </g>
  <g id="bullet-char-template(10132)" transform="scale(0.00048828125,-0.00048828125)">
   <path d="M 2015,739 L 1276,0 717,0 1260,543 174,543 174,936 1260,936 717,1481 1274,1481 2015,739 Z"/>
  </g>
  <g id="bullet-char-template(10007)" transform="scale(0.00048828125,-0.00048828125)">
   <path d="M 0,-2 C -7,14 -16,27 -25,37 L 356,567 C 262,823 215,952 215,954 215,979 228,992 255,992 264,992 276,990 289,987 310,991 331,999 354,1012 L 381,999 492,748 772,1049 836,1024 860,1049 C 881,1039 901,1025 922,1006 886,937 835,863 770,784 769,783 710,716 594,584 L 774,223 C 774,196 753,168 711,139 L 727,119 C 717,90 699,76 672,76 641,76 570,178 457,381 L 164,-76 C 142,-110 111,-127 72,-127 30,-127 9,-110 8,-76 1,-67 -2,-52 -2,-32 -2,-23 -1,-13 0,-2 Z"/>
  </g>
  <g id="bullet-char-template(10004)" transform="scale(0.00048828125,-0.00048828125)">
   <path d="M 285,-33 C 182,-33 111,30 74,156 52,228 41,333 41,471 41,549 55,616 82,672 116,743 169,778 240,778 293,778 328,747 346,684 L 369,508 C 377,444 397,411 428,410 L 1163,1116 C 1174,1127 1196,1133 1229,1133 1271,1133 1292,1118 1292,1087 L 1292,965 C 1292,929 1282,901 1262,881 L 442,47 C 390,-6 338,-33 285,-33 Z"/>
  </g>
  <g id="bullet-char-template(9679)" transform="scale(0.00048828125,-0.00048828125)">
   <path d="M 813,0 C 632,0 489,54 383,161 276,268 223,411 223,592 223,773 276,916 383,1023 489,1130 632,1184 813,1184 992,1184 1136,1130 1245,1023 1353,916 1407,772 1407,592 1407,412 1353,268 1245,161 1136,54 992,0 813,0 Z"/>
  </g>
  <g id="bullet-char-template(8226)" transform="scale(0.00048828125,-0.00048828125)">
   <path d="M 346,457 C 273,457 209,483 155,535 101,586 74,649 74,723 74,796 101,859 155,911 209,963 273,989 346,989 419,989 480,963 531,910 582,859 608,796 608,723 608,648 583,586 532,535 482,483 420,457 346,457 Z"/>
  </g>
  <g id="bullet-char-template(8211)" transform="scale(0.00048828125,-0.00048828125)">
   <path d="M -4,459 L 1135,459 1135,606 -4,606 -4,459 Z"/>
  </g>
 </defs>
 <defs class="TextEmbeddedBitmaps"/>
 <g>
  <g id="id2" class="Master_Slide">
   <g id="bg-id2" class="Background"/>
   <g id="bo-id2" class="BackgroundObjects"/>
  </g>
 </g>
 <g class="SlideGroup">
  <g>
   <g id="id1" class="Slide" clip-path="url(#presentation_clip_path)">
    <g class="Page">
     <g class="com.sun.star.drawing.ClosedBezierShape">
      <g id="id3">
       <rect class="BoundingBox" stroke="none" fill="none" x="1045" y="481" width="18089" height="26643"/>
       <path fill="rgb(33,29,29)" stroke="none" d="M 11214,7677 C 10542,8478 9600,9054 8566,9284 9161,8784 10138,8062 11214,7677 Z M 19088,19244 C 18916,18354 17862,17661 17629,18539 17474,19124 15823,19741 15197,18247 14572,16754 12892,15392 12892,15392 10611,13941 6906,15542 6906,15542 6591,15327 6620,14855 6620,14855 6620,14855 8685,15197 9009,13492 9234,12318 8656,11024 8274,10331 8568,10224 9027,10083 9387,10091 9962,10104 11397,8788 11397,8788 11813,8424 12142,7951 12372,7421 12418,7418 12464,7415 12510,7414 14755,7346 14810,6652 14946,6237 15052,5916 14391,5264 12749,5263 12682,3710 11987,2318 10754,1500 11667,2323 12234,3507 12250,4797 11929,4206 11334,3777 10615,3697 10549,3690 10484,3686 10419,3684 11249,3854 11882,4499 12063,5296 11760,5326 11432,5374 11078,5447 8209,6033 6775,9175 6775,9175 6410,8930 5762,8889 5400,8886 5281,8860 5164,8829 5049,8794 4778,8199 6287,5598 7306,4385 8400,3082 8430,2508 8430,2508 8370,1518 7320,1809 7320,1809 4543,2812 3688,5907 3429,7921 2425,7097 1757,5880 1702,4561 1831,3468 2769,2665 3850,2685 3787,2672 3722,2662 3656,2655 2937,2575 2262,2863 1820,3369 2118,2114 2930,1083 4002,481 2471,1065 1431,2479 1121,4204 913,5361 1136,6572 1778,7451 1778,7451 2740,8834 3328,9118 3313,9507 3322,9741 3322,9741 -1012,18248 5824,26115 5824,26115 5090,23029 5180,21175 5180,21175 6438,23691 8427,25070 8427,25070 7294,23000 7483,21348 7922,20244 8361,19140 10008,18320 11169,18897 11930,19275 12010,20290 12010,20290 12001,20203 11985,20120 11968,20046 11918,19834 11784,19664 11643,19500 11184,18967 9807,18543 8686,19877 6998,21887 8889,25392 8889,25392 6844,25889 5939,27123 5939,27123 8105,26549 12123,26813 12123,26813 15204,24510 15382,20867 15382,20867 17973,23393 19408,20891 19088,19244 Z"/>
      </g>
     </g>
     <g class="com.sun.star.drawing.ClosedBezierShape">
      <g id="id4">
       <rect class="BoundingBox" stroke="none" fill="none" x="9332" y="1480" width="2" height="2"/>
       <path fill="rgb(33,29,29)" stroke="none" d="M 9332,1480 L 9333,1481 C 9332,1480 9332,1480 9332,1480 Z"/>
      </g>
     </g>
     <g class="com.sun.star.drawing.PolyPolygonShape">
      <g id="id5">
       <rect class="BoundingBox" stroke="none" fill="none" x="2510" y="1211" width="1" height="1"/>
       <path fill="rgb(33,29,29)" stroke="none" d="M 2510,1211 L 2510,1211 Z"/>
      </g>
     </g>
    </g>
   </g>
  </g>
 </g>
</svg>