<svg id="Layer_1" data-name="Layer 1" xmlns="http://www.w3.org/2000/svg" xmlns:xlink="http://www.w3.org/1999/xlink" viewBox="0 0 407.6 600"><defs><style>.cls-1{fill:url(#radial-gradient);}</style><radialGradient id="radial-gradient" cx="197.8" cy="391" r="206" gradientUnits="userSpaceOnUse"><stop offset="0" stop-color="#ff8300" stop-opacity="0.5"/><stop offset="0.15" stop-color="#ffda00" stop-opacity="0.36"/><stop offset="0.24" stop-color="#ff0" stop-opacity="0.3"/><stop offset="0.39" stop-color="#ff0" stop-opacity="0.27"/><stop offset="0.61" stop-color="#ff0" stop-opacity="0.19"/><stop offset="0.88" stop-color="#ff0" stop-opacity="0.07"/><stop offset="1" stop-color="#ff0" stop-opacity="0"/></radialGradient></defs><title>showcase-hover-icon</title><path d="M204.78,80.64A40.32,40.32,0,1,1,245.1,40.32,40.37,40.37,0,0,1,204.78,80.64Zm0-74.74A34.42,34.42,0,1,0,239.2,40.32,34.46,34.46,0,0,0,204.78,5.9Z"/><path d="M402.46,372.73c0-63.76-30.3-115.51-72.78-134.73,25.57-13.77,2-27.54,2-27.54V196.69c-5.9-13.77-47.21-17.7-47.21-17.7V145.55c15.74-11.8-5.9-19.67-5.9-19.67-17.7-37.37-64.25-39.34-64.25-39.34V78L203.8,80.64,193.31,78v8.52s-46.55,2-64.25,39.34c0,0-21.64,7.87-5.9,19.67V179s-41.3,3.93-47.21,17.7v13.77s-23.6,13.77,2,27.54C35.44,257.21,5.14,309,5.14,372.73c0,72.71,38.65,130.47,90.48,140.63v2s-9.83,5.9-9.83,9.83,7.87,3.93,7.87,3.93-2,21.64,35.4,19.67v23.6s19.67,29.5,57,27.54h35.4c37.37,2,57-27.54,57-27.54v-23.6c37.37,2,35.4-19.67,35.4-19.67s7.87,0,7.87-3.93-9.83-9.83-9.83-9.83v-2C363.81,503.2,402.46,445.44,402.46,372.73ZM95,489.76v15.65c-47.5-14-82-67.33-82-133.56,0-61.48,30.3-111.39,72.78-129.92h9.83v2c4-2.69,9.86-4.85,16.73-6.58-15.38,29.3-24.6,67.08-24.6,109.25,0,57.23,16.63,106.74,42.7,137.48C104.08,486.54,95,489.76,95,489.76ZM264.65,483c-15.5-1.09-35.43-1.87-60.85-1.87s-45.35.78-60.85,1.87c-28.71-29.1-47.33-79.12-47.33-137.51,0-43.15,10.38-81.54,27.49-110.44,33.7-5.82,80.69-4.46,80.69-4.46s47-1.36,80.69,4.46C301.6,264,312,302.36,312,345.51,312,403.9,293.36,453.92,264.65,483Zm12.5,1c26.07-30.74,42.7-80.24,42.7-137.48,0-42.18-9.22-80-24.6-109.25,6.88,1.73,12.7,3.89,16.73,6.58v-2h9.83c42.48,18.53,72.78,68.44,72.78,129.92,0,66.23-34.49,119.59-82,133.56V489.76S303.51,486.54,277.15,484Z"/><path d="M406.12,376.89l-4.4-.75a1183.89,1183.89,0,0,0-393.92-.32l-6.32,1.06L0,368.08,6.32,367a1192.77,1192.77,0,0,1,396.88.32l4.4.75Z"/><path d="M227.4,489.76c-18.36-1.31-32.78-2.62-51.14-3.93.8-2.86,3.48-8.12,3.93-11.8.78-6.37,2.51-12,2-16.39-.66-6.71.66-13.41,0-20.12h0a8,8,0,0,1-1.26-6.2l1.26-4.5a2.41,2.41,0,0,1,2.34-2.14c.93.12,1.27,1.89,4.78,2.11a4.05,4.05,0,0,0,1.45-.19c3.57-1.11,19.57-6.22,24.32-10.39,1.22-1.07,2.84-1.54,4-2.7l6-6.14a2.68,2.68,0,0,1,3.72-.24,2.76,2.76,0,0,1,.86,1.88l-.19,21.75c5.9,47.21,0,41.3,0,41.3a52.6,52.6,0,0,0,2,11.8C232.53,487.13,226.12,487.79,227.4,489.76Z"/><path d="M205,425.41a19.66,19.66,0,0,1-3.1-7.25,32.85,32.85,0,0,1-.58-5.09c-.12-2.24-.22-3.35-1.12-4.24l1.39-1.39c1.47,1.47,1.57,3.26,1.69,5.53a30.78,30.78,0,0,0,.55,4.8,17.69,17.69,0,0,0,2.8,6.52Z"/><path d="M108.66,500.2A154.7,154.7,0,0,1,56.3,441.84a135.79,135.79,0,0,1-7.94-18.2c-1.07-3.13-2.25-6.23-3-9.45s-1.76-6.38-2.33-9.65a157.23,157.23,0,0,1-3-39.34c.14-1.64.35-3.27.38-4.92s.08-3.28.16-4.92,0-3.3,0-5a39.41,39.41,0,0,1,.09-5l.37-5c.15-1.66.21-3.33.49-5,.51-3.29.87-6.63,1.51-9.92s1.25-6.61,2-9.89,1.66-6.56,2.69-9.79,2.22-6.41,3.51-9.56,2.86-6.16,4.37-9.21c1.69-3,3.44-5.87,5.21-8.77q2.94-4.17,6-8.27c2.17-2.62,4.26-5.3,6.54-7.81L80.38,255q3.84-3.35,7.7-6.61c2.67-2.07,5.47-4,8.19-5.93s5.78-3.47,8.64-5.18l4.54-2.19c1.52-.71,3.06-1.37,4.58-2l.25.38a178.52,178.52,0,0,0-52.38,57.27,170.11,170.11,0,0,0-15.45,35.82c-1,3.12-1.65,6.32-2.49,9.48-.45,1.58-.68,3.2-1,4.8L42,345.65c-.35,1.6-.55,3.23-.74,4.86l-.57,4.89a78.91,78.91,0,0,0-.52,9.82,163.54,163.54,0,0,0,18,75.66A161.26,161.26,0,0,0,80,473.35a171.78,171.78,0,0,0,28.9,26.48Z"/><path d="M285.79,228.34a156.31,156.31,0,0,1,61,58.39c1.72,3.13,3.56,6.19,5.17,9.38L354.2,301c.72,1.63,1.58,3.21,2.18,4.89,1.25,3.35,2.65,6.63,3.77,10s2.11,6.82,3,10.28a158.28,158.28,0,0,1,4.67,42.28,73.63,73.63,0,0,0-.42,10.62l-.06,10.7c-.18,3.57-.61,7.12-.92,10.71s-1.11,7.1-1.67,10.68-1.52,7.07-2.29,10.63c-.35,1.8-1,3.5-1.45,5.26s-1,3.5-1.59,5.25c-1.12,3.48-2.58,6.83-3.95,10.24a51.57,51.57,0,0,1-2.38,5l-2.52,4.89a20.17,20.17,0,0,1-1.38,2.38l-1.48,2.32-3,4.64c-2.1,3-4.44,5.84-6.65,8.76s-4.78,5.55-7.28,8.22-5.28,5.06-7.91,7.58c-2.8,2.35-5.7,4.57-8.53,6.84s-6.05,4.05-9,6.07c-3.12,1.85-6.37,3.48-9.52,5.21l-5,2.15c-1.66.69-3.35,1.34-5,2l-.22-.39a176.21,176.21,0,0,0,58.67-59.48,169.06,169.06,0,0,0,16.95-38.48c.87-3.41,1.88-6.79,2.65-10.23s1.4-6.92,2-10.4.95-7,1.29-10.52l.27-5.3.13-5.3a164,164,0,0,0-48.43-114,170.6,170.6,0,0,0-33.5-25.74Z"/><path d="M68.22,308.9A65.15,65.15,0,0,1,71,298a87.67,87.67,0,0,1,3.7-9.27A83.13,83.13,0,0,1,84,273.41a80.65,80.65,0,0,1,24.08-21,81.66,81.66,0,0,1,30.29-10.2,83.83,83.83,0,0,1,17.87-.36,87.23,87.23,0,0,1,9.86,1.43,65.35,65.35,0,0,1,10.82,3.09Z"/><circle class="cls-1" cx="197.8" cy="391" r="206"/><path d="M197.9,409.12s-17.12-13.56-11.8-29.5c3.93-11.8,9.83-15.74,9.83-19.67,0,0,0,11.8,7.87,19.67s5.9,13.77,3.93,19.67c-.88,2.64-3.93,5.9-3.93,5.9s3.93-5.9,0-9.83-7.87-5.9-7.87-7.87c0,0-5.9,11.8,2,21.64"/></svg>