<svg id="Layer_1" data-name="Layer 1" xmlns="http://www.w3.org/2000/svg" viewBox="0 0 407.6 600"><defs><style>.cls-1{opacity:0.75;}.cls-2{fill:#fff;}</style></defs><title>showcase-icon</title><ellipse class="cls-1" cx="203.8" cy="366.22" rx="163.75" ry="163.74"/><path d="M204.78,80.64A40.32,40.32,0,1,1,245.1,40.32,40.37,40.37,0,0,1,204.78,80.64Zm0-74.74A34.42,34.42,0,1,0,239.2,40.32,34.46,34.46,0,0,0,204.78,5.9Z"/><path d="M402.46,372.73c0-63.76-30.3-115.51-72.78-134.73,25.57-13.77,2-27.54,2-27.54V196.69c-5.9-13.77-47.21-17.7-47.21-17.7V145.55c15.74-11.8-5.9-19.67-5.9-19.67-17.7-37.37-64.25-39.34-64.25-39.34V78L203.8,80.64,193.31,78v8.52s-46.55,2-64.25,39.34c0,0-21.64,7.87-5.9,19.67V179s-41.3,3.93-47.21,17.7v13.77s-23.6,13.77,2,27.54C35.44,257.21,5.14,309,5.14,372.73c0,72.71,38.65,130.47,90.48,140.63v2s-9.83,5.9-9.83,9.83,7.87,3.93,7.87,3.93-2,21.64,35.4,19.67v23.6s19.67,29.5,57,27.54h35.4c37.37,2,57-27.54,57-27.54v-23.6c37.37,2,35.4-19.67,35.4-19.67s7.87,0,7.87-3.93-9.83-9.83-9.83-9.83v-2C363.81,503.2,402.46,445.44,402.46,372.73ZM95,489.76v15.65c-47.5-14-82-67.33-82-133.56,0-61.48,30.3-111.39,72.78-129.92h9.83v2c4-2.69,9.86-4.85,16.73-6.58-15.38,29.3-24.6,67.08-24.6,109.25,0,57.23,16.63,106.74,42.7,137.48C104.08,486.54,95,489.76,95,489.76ZM264.65,483c-15.5-1.09-35.43-1.87-60.85-1.87s-45.35.78-60.85,1.87c-28.71-29.1-47.33-79.12-47.33-137.51,0-43.15,10.38-81.54,27.49-110.44,33.7-5.82,80.69-4.46,80.69-4.46s47-1.36,80.69,4.46C301.6,264,312,302.36,312,345.51,312,403.9,293.36,453.92,264.65,483Zm12.5,1c26.07-30.74,42.7-80.24,42.7-137.48,0-42.18-9.22-80-24.6-109.25,6.88,1.73,12.7,3.89,16.73,6.58v-2h9.83c42.48,18.53,72.78,68.44,72.78,129.92,0,66.23-34.49,119.59-82,133.56V489.76S303.51,486.54,277.15,484Z"/><path d="M406.11,376.89l-4.4-.75a1183.85,1183.85,0,0,0-393.92-.32l-6.32,1.06L0,368.08,6.32,367a1192.84,1192.84,0,0,1,396.88.32l4.4.75Z"/><path class="cls-2" d="M230.57,481l0,.22,0,.22c-8.12-.39-16.59-.62-25.38-.63-9.52,0-18.66.2-27.41.61.4-.89.89-2.21,1.43-3.82a19.42,19.42,0,0,0,.89-3.61c.78-6.37,2.51-12,2-16.39-.66-6.71.66-13.41,0-20.12h0a8,8,0,0,1-1.26-6.2l1.26-4.5a2.41,2.41,0,0,1,2.34-2.14c.93.12,1.27,1.89,4.78,2.11a4.05,4.05,0,0,0,1.45-.19c3.57-1.11,19.57-6.22,24.32-10.39,1.22-1.07,2.84-1.54,4-2.7l6-6.14a2.68,2.68,0,0,1,3.72-.24,2.76,2.76,0,0,1,.86,1.88l-.19,21.75c4.65,37.23,2,41.43.62,41.54-.22,0-.83-.31-.62-.23h0C230,477.16,230.54,480.87,230.57,481Z"/><path class="cls-2" d="M205,425.41a19.66,19.66,0,0,1-3.1-7.25,32.85,32.85,0,0,1-.58-5.09c-.12-2.24-.22-3.35-1.12-4.24l1.39-1.39c1.47,1.47,1.57,3.26,1.69,5.53a30.78,30.78,0,0,0,.55,4.8,17.69,17.69,0,0,0,2.8,6.52Z"/><path class="cls-2" d="M198.42,394.54a52.77,52.77,0,0,1-5.93-10.22,30.45,30.45,0,0,1-2.67-11.6,20.64,20.64,0,0,1,.78-6,23,23,0,0,1,2.48-5.48c2.17-3.43,5.37-5.9,8.47-8.26a15.52,15.52,0,0,0,4.14-4.16,23.22,23.22,0,0,0,5.19-15.49c.3-7.17-2-14.42-4.09-22.18l.16-.09a50.14,50.14,0,0,1,5.14,10.65,30.86,30.86,0,0,1,1.69,11.78A22.53,22.53,0,0,1,210,344.76a26.13,26.13,0,0,1-3.85,4.51c-1.43,1.36-3,2.52-4.49,3.82-3,2.51-6,5.12-8,8.51a22.27,22.27,0,0,0-2.24,5.36,25.13,25.13,0,0,0-.71,5.76,31.12,31.12,0,0,0,2.44,11.36,63.73,63.73,0,0,0,5.47,10.37Z"/><path class="cls-2" d="M68.22,308.9A65.15,65.15,0,0,1,71,298a87.67,87.67,0,0,1,3.7-9.27A83.13,83.13,0,0,1,84,273.41a80.65,80.65,0,0,1,24.08-21,81.66,81.66,0,0,1,30.29-10.2,83.83,83.83,0,0,1,17.87-.36,87.23,87.23,0,0,1,9.86,1.43,65.35,65.35,0,0,1,10.82,3.09Z"/><path d="M312,243.31m-27.49-8.23C301.6,264,312,302.36,312,345.51q0,5-.19,10a1190.86,1190.86,0,0,0-216,0q-.18-4.94-.19-10c0-43.15,10.38-81.54,27.49-110.44a40.61,40.61,0,0,0-10.75,2.24c-15.38,29.3-24.6,67.08-24.6,109.25q0,4.87.17,9.66Q64,358.56,40.1,361.87,40,364,40,366.22c0,1.56,0,3.12.07,4.67q24.09-3.36,48.24-5.73c3.18,49.3,18.89,91.53,42.09,118.89l12.5-1c-25.56-25.91-43.11-68.41-46.66-118.62a1181.91,1181.91,0,0,1,215,0c-3.55,50.21-21.1,92.71-46.66,118.62l12.5,1c23.2-27.36,38.91-69.59,42.09-118.89q24.15,2.37,48.24,5.73c0-1.55.07-3.11.07-4.67s0-2.91-.06-4.35q-23.88-3.31-47.81-5.65.16-4.79.17-9.65c0-42.18-9.22-80-24.6-109.25C295.25,237.32,295.18,235.68,284.49,235.08Z"/></svg>